<svg width="1280" height="315" viewBox="0 0 1280 315" fill="none" xmlns="http://www.w3.org/2000/svg">
<rect width="1280" height="292" rx="30" fill="url(#paint0_linear_0_1192)"/>
<rect width="1280" height="292" rx="30" fill="#447EF7"/>
<mask id="mask0_0_1192" style="mask-type:alpha" maskUnits="userSpaceOnUse" x="0" y="0" width="1280" height="292">
<rect width="1280" height="292" rx="30" fill="url(#paint1_linear_0_1192)"/>
<rect width="1280" height="292" rx="30" fill="#447EF7"/>
</mask>
<g mask="url(#mask0_0_1192)">
<path fill-rule="evenodd" clip-rule="evenodd" d="M1500.41 204.903L1429.67 173.602C1358.92 142.3 1217.44 79.6977 1055.38 90.1512C893.321 100.605 710.691 184.114 540.919 221.964C371.147 259.813 214.231 252.003 72.7447 189.4C-68.742 126.797 -194.8 9.40268 -257.829 -49.2946L-320.858 -107.992L-398.001 165.968L-324.686 188.138C-251.371 210.307 -104.742 254.645 41.8877 298.984C188.517 343.323 335.147 387.661 481.776 432C628.406 476.338 775.035 520.677 921.665 565.016C1068.29 609.354 1214.92 653.693 1288.24 675.862L1361.55 698.031L1500.41 204.903Z" fill="#4B66EA"/>
</g>
<defs>
<linearGradient id="paint0_linear_0_1192" x1="-179" y1="269.671" x2="2119.87" y2="-173.611" gradientUnits="userSpaceOnUse">
<stop offset="0.0984052" stop-color="#222161"/>
<stop offset="0.74708" stop-color="#D8EFFC"/>
<stop offset="1" stop-color="#B4E0D9"/>
</linearGradient>
<linearGradient id="paint1_linear_0_1192" x1="-179" y1="269.671" x2="2119.87" y2="-173.611" gradientUnits="userSpaceOnUse">
<stop offset="0.0984052" stop-color="#222161"/>
<stop offset="0.74708" stop-color="#D8EFFC"/>
<stop offset="1" stop-color="#B4E0D9"/>
</linearGradient>
</defs>
</svg>
