<svg width="1432" height="400" viewBox="0 0 1432 400" fill="none" xmlns="http://www.w3.org/2000/svg">
<path fill-rule="evenodd" clip-rule="evenodd" d="M1699.68 70.7695L1611.74 47.1055C1523.79 23.4415 1347.9 -23.8865 1159.6 14.8437C971.301 53.5738 770.59 178.362 577.635 249.364C384.68 320.366 199.483 337.582 23.5932 290.254C-152.296 242.926 -318.878 131.054 -402.168 75.1184L-485.459 19.1826L-532 341.901L-442.504 354.807C-353.008 367.714 -174.015 393.528 4.97681 419.341C183.969 445.154 362.961 470.968 541.954 496.781C720.946 522.595 899.938 548.408 1078.93 574.222C1257.92 600.035 1436.91 625.849 1526.41 638.755L1615.91 651.662L1699.68 70.7695Z" fill="#4B66EA"/>
</svg>
