<svg width="61" height="69" viewBox="0 0 61 69" fill="none" xmlns="http://www.w3.org/2000/svg">
<path fill-rule="evenodd" clip-rule="evenodd" d="M30.0108 0.0534668L30.9885 0.399332L31.0541 0.423184C38.4943 3.47037 54.0781 10.656 59.0322 16.6669L59.9622 17.7939L59.5449 19.1953C59.0918 20.7159 58.5374 22.2544 57.977 23.7392C56.5522 27.5497 54.9365 31.3065 53.1719 34.9739C47.6693 46.4411 40.5987 57.4133 32.0378 66.8352C31.3999 67.5329 30.7262 68.2365 30.0108 68.9163C29.2954 68.2365 28.6218 67.5388 27.9839 66.8352C19.4229 57.4133 12.3524 46.4411 6.84978 34.9739C5.09109 31.3065 3.46952 27.5497 2.04468 23.7392C1.49025 22.2544 0.935812 20.7159 0.476765 19.1953L0.0594482 17.7939L0.989467 16.6669C5.94957 10.662 21.5334 3.47633 28.9735 0.423184L29.0391 0.399332L30.0168 0.0534668H30.0108Z" fill="#4B66EA"/>
<path d="M30.011 68.9881L29.9752 68.9523C29.3016 68.3142 28.6219 67.6165 27.9423 66.8711C23.7751 62.2855 19.8285 57.181 16.2217 51.7008C12.7758 46.4711 9.6102 40.8478 6.7963 34.9979C4.97799 31.2053 3.35642 27.4247 1.9912 23.7573C1.44868 22.3023 0.882326 20.7459 0.423278 19.2074L0 17.7822L0.947904 16.6313C3.12391 13.9896 7.52362 10.8768 14.0218 7.38242C20.3531 3.98937 26.5711 1.35364 28.9558 0.375681L29.0214 0.351828L30.017 0L31.0126 0.351828L31.0781 0.381644C33.4568 1.35961 39.6749 3.99533 46.0002 7.39435C52.4984 10.8888 56.8981 14.0016 59.0741 16.6432L60.022 17.7941L59.5987 19.2193C59.1397 20.7519 58.5733 22.3142 58.0308 23.7693C56.6656 27.4306 55.05 31.2113 53.2257 35.0098C50.4178 40.8597 47.2462 46.483 43.8003 51.7127C40.1935 57.1929 36.2529 62.2974 32.0797 66.8831C31.406 67.6285 30.7204 68.3262 30.0468 68.9642L30.011 69V68.9881ZM0.125195 17.812L0.53655 19.1836C0.995598 20.7161 1.55599 22.2725 2.09851 23.7215C3.46373 27.3829 5.07934 31.1576 6.89764 34.9502C12.7043 47.0436 19.8106 57.7594 28.0198 66.7996C28.6816 67.5271 29.3493 68.2129 30.005 68.839C30.6608 68.2129 31.3285 67.5271 31.9903 66.7996C40.2054 57.7594 47.3118 47.0495 53.1124 34.9502C54.9308 31.1576 56.5464 27.377 57.9116 23.7215C58.4541 22.2665 59.0205 20.7101 59.4735 19.1836L59.8849 17.812L58.9728 16.7088C56.8027 14.0791 52.4149 10.9782 45.9286 7.48976C39.6272 4.08478 33.4092 1.44905 31.0305 0.477055L30.9649 0.453202L30.011 0.119264L29.0512 0.459165L28.9916 0.483018C26.6129 1.45502 20.3948 4.09074 14.0755 7.48976C7.59516 10.9723 3.20737 14.0731 1.03733 16.7029L0.125195 17.8061V17.812Z" fill="#4B66EA"/>
<path fill-rule="evenodd" clip-rule="evenodd" d="M30.0111 2.96387C30.0111 2.96387 51.4015 11.7297 56.916 18.4145C56.916 18.4145 49.3805 43.6865 30.0111 64.9929C10.6476 43.6865 3.10608 18.4145 3.10608 18.4145C8.62658 11.7297 30.0111 2.96387 30.0111 2.96387Z" fill="#D8EFFC"/>
<path fill-rule="evenodd" clip-rule="evenodd" d="M30.0102 60.4606C37.2059 52.0346 43.2213 42.4518 47.9965 32.4933C49.6837 28.981 51.2337 25.3852 52.5989 21.7357C52.909 20.9008 53.2249 20.0481 53.517 19.1894C48.5927 14.6156 36.2819 8.85521 30.0102 6.20755C23.7385 8.85521 11.4277 14.6156 6.50338 19.1894C6.7955 20.0481 7.11147 20.9008 7.42147 21.7357C8.78669 25.3852 10.3367 28.981 12.0239 32.4933C16.7992 42.4518 22.8145 52.0346 30.0102 60.4606ZM30.0102 61.9097C37.5815 53.2273 43.877 43.2687 48.855 32.9047C50.5541 29.3686 52.1161 25.7429 53.4872 22.0696C53.8688 21.038 54.2563 19.9825 54.608 18.927C49.7493 14.0611 36.4846 7.88917 30.0162 5.18188C23.5478 7.88917 10.2771 14.0611 5.42432 18.927C5.77009 19.9825 6.1576 21.038 6.54511 22.0696C7.91629 25.7489 9.48421 29.3686 11.1773 32.9047C16.1493 43.2687 22.4508 53.2273 30.0221 61.9097H30.0102Z" fill="#4B66EA"/>
<path d="M30.0111 61.9874L29.9693 61.9397C22.6961 53.5972 16.3529 43.8295 11.1185 32.9228C9.35985 29.2555 7.7979 25.612 6.48037 22.0817C6.10479 21.0799 5.71132 20.0066 5.35958 18.9392L5.34766 18.9093L5.3715 18.8855C11.1424 13.1072 28.0735 5.93345 29.9812 5.12842H29.9991H30.017C31.9307 5.92748 48.8618 13.1072 54.6268 18.8855L54.6506 18.9093L54.6387 18.9392C54.2869 20.0066 53.8935 21.0799 53.5179 22.0817C52.2004 25.612 50.6444 29.2555 48.8797 32.9228C43.6454 43.8295 37.3022 53.5972 30.0289 61.9397L29.9872 61.9874H30.0111ZM5.47881 18.9392C5.82459 19.9946 6.21806 21.0561 6.58768 22.046C7.90521 25.5702 9.4612 29.2137 11.2199 32.8811C16.4423 43.7639 22.7617 53.5018 30.0111 61.8264C37.2604 53.5018 43.5858 43.7579 48.8022 32.8811C50.5609 29.2197 52.1169 25.5702 53.4344 22.046C53.804 21.0561 54.1916 19.9946 54.5433 18.9392C48.7843 13.2026 32.0142 6.07656 30.0111 5.24172C28.0079 6.08253 11.2318 13.2026 5.47881 18.9392ZM30.0111 60.5383L29.9693 60.4906C23.0478 52.3926 16.9967 42.9767 11.9711 32.5173C10.2243 28.8798 8.67426 25.2542 7.36866 21.7538C7.07058 20.9487 6.74865 20.0841 6.45056 19.2075L6.43864 19.1717L6.46249 19.1479C10.9278 15.0035 21.9211 9.55906 29.9872 6.16005H30.0051H30.023C38.0831 9.56503 49.0824 15.0094 53.5477 19.1479L53.5715 19.1717L53.5596 19.2075C53.2615 20.0841 52.9396 20.9487 52.6415 21.7538C51.3359 25.2542 49.7859 28.8738 48.0391 32.5173C43.0194 42.9827 36.9623 52.3926 30.0409 60.4906L29.9991 60.5383H30.0111ZM6.5698 19.2075C6.86788 20.0722 7.17789 20.9249 7.47597 21.718C8.78157 25.2184 10.3316 28.8321 12.0724 32.4696C17.0802 42.9052 23.1134 52.2912 30.0111 60.3773C36.9087 52.2972 42.9419 42.9052 47.9497 32.4696C49.6965 28.8321 51.2405 25.2124 52.5461 21.718C52.8442 20.9249 53.1542 20.0722 53.4523 19.2075C48.987 15.081 38.0414 9.6664 30.0051 6.26739C21.9688 9.66044 11.0232 15.081 6.55787 19.2075H6.5698Z" fill="white"/>
<path fill-rule="evenodd" clip-rule="evenodd" d="M30.0113 13.0291C21.2953 13.0291 13.3246 19.523 13.3246 28.5333C13.3246 37.5437 21.2953 44.0376 30.0113 44.0376C38.7272 44.0376 46.698 37.5437 46.698 28.5333C46.698 19.523 38.7272 13.0291 30.0113 13.0291ZM30.0113 14.8657C21.808 14.8657 15.1608 20.9839 15.1608 28.5333C15.1608 36.0827 21.808 42.2009 30.0113 42.2009C38.2145 42.2009 44.8618 36.0827 44.8618 28.5333C44.8618 20.9839 38.2145 14.8657 30.0113 14.8657Z" fill="#4B66EA"/>
<path fill-rule="evenodd" clip-rule="evenodd" d="M38.3467 13.9791C38.5792 14.0507 38.8177 14.164 39.0323 14.2773C39.5748 14.5635 40.0815 14.9333 40.5227 15.3566C40.6777 15.2374 40.8327 15.0227 40.94 14.8557C41.2441 14.3668 41.3931 13.7943 41.4408 13.2218C41.4766 12.7388 41.5123 12.2558 41.5362 11.7668C41.5362 11.6893 41.5421 11.6058 41.5421 11.5283C41.5421 11.4806 41.5779 11.4388 41.6256 11.4388L57.7936 10.0494C58.044 10.0136 58.3481 10.115 58.5448 10.2641C59.1529 10.7352 59.1589 11.7728 59.0933 12.4645C58.98 13.6154 58.4971 14.6828 57.7936 15.5892C57.4777 15.9947 57.0842 16.43 56.6728 16.7401C56.9173 16.8117 57.2034 17.0204 57.3763 17.2112C57.8652 17.7479 57.9367 18.4754 57.8234 19.1671C57.6684 20.0974 57.3942 20.9143 56.7802 21.6418C56.0469 22.5065 54.944 23.1147 53.9305 23.5858C54.0676 23.7588 54.1868 23.9734 54.2822 24.1762C54.4968 24.6234 54.622 25.1243 54.6101 25.6252C54.5922 26.2573 54.2345 26.8835 53.8291 27.3546C53.382 27.8793 52.7739 28.3385 52.1301 28.6009C51.6054 28.8155 51.0748 29.0064 50.5383 29.1793C50.3177 29.2509 50.0971 29.3224 49.8765 29.382C49.8527 29.388 49.8348 29.4119 49.8348 29.4357C49.8229 29.5132 49.9302 29.6146 49.9779 29.6623C50.2044 29.871 50.425 30.2348 50.5442 30.5151C50.741 30.9563 50.8244 31.4572 50.6516 31.9164C50.2581 32.948 48.72 33.6934 47.7363 34.0274C46.9553 34.2957 46.0969 34.5819 45.2622 34.5819C45.4291 34.6774 45.602 34.8384 45.7272 34.9874C45.9657 35.2856 46.0432 35.6255 45.8345 35.9654C45.5365 36.4484 44.7555 36.9314 44.2607 37.1998C43.5572 37.5814 42.7464 37.9154 41.9595 38.0764C41.2143 38.2255 40.4094 37.82 39.8073 37.4085C39.5152 37.2057 39.235 36.9791 38.9667 36.7406C38.7998 36.5915 38.6448 36.4365 38.4838 36.2874C38.3407 36.1562 38.144 35.9714 38.0426 35.8044L36.6357 38.3686L35.4732 41.7497L37.3094 44.0753L37.3272 44.0873C37.3272 44.0873 37.3332 44.0932 37.3392 44.0992L40.5465 48.2436C40.5465 48.2436 40.5465 48.2436 40.5525 48.2496C40.7969 48.661 40.9817 49.2573 41.0473 49.7284C41.2083 50.8614 40.8685 51.8752 40.0696 52.6921C39.2529 53.521 38.2155 53.9504 37.053 53.9802C36.5701 53.9921 35.9561 53.9325 35.497 53.7715C35.4434 53.9802 35.3539 54.1949 35.2645 54.3916C35.0499 54.8687 34.7637 55.3219 34.4239 55.7155C33.9589 56.2581 33.3926 56.6934 32.7427 56.9976C31.8843 57.3971 30.9423 57.5283 30.0004 57.4865C30.0004 57.4865 29.9884 57.4865 29.9825 57.4865L29.9348 57.4746L29.8871 57.4865C29.8871 57.4865 29.8752 57.4865 29.8692 57.4865C28.9273 57.5283 27.9853 57.3971 27.1268 56.9976C26.477 56.6934 25.9107 56.2581 25.4457 55.7155C25.1058 55.3159 24.8197 54.8687 24.6051 54.3916C24.5156 54.1949 24.4262 53.9802 24.3726 53.7715C23.9135 53.9325 23.3054 53.9921 22.8166 53.9802C21.654 53.9504 20.6227 53.521 19.8 52.6921C18.9951 51.8811 18.6553 50.8614 18.8222 49.7284C18.8878 49.2573 19.0726 48.661 19.3171 48.2496C19.3171 48.2496 19.3171 48.2496 19.323 48.2436L22.5304 44.0992C22.5304 44.0992 22.5364 44.0932 22.5423 44.0873L22.5602 44.0753L24.3964 41.7497L23.2339 38.3686L21.8269 35.8044C21.7315 35.9714 21.5288 36.1562 21.3858 36.2874C21.2248 36.4365 21.0698 36.5915 20.9029 36.7406C20.6346 36.9791 20.3604 37.2057 20.0623 37.4085C19.4601 37.82 18.6613 38.2255 17.9101 38.0764C17.1232 37.9154 16.3124 37.5814 15.6089 37.1998C15.1141 36.9314 14.3331 36.4484 14.035 35.9654C13.8264 35.6255 13.8979 35.2856 14.1423 34.9874C14.2616 34.8384 14.4404 34.6833 14.6074 34.5819C13.7727 34.5819 12.9142 34.2957 12.1333 34.0274C11.1496 33.6934 9.60552 32.9421 9.21801 31.9164C9.04513 31.4572 9.12859 30.9504 9.32532 30.5151C9.45052 30.2348 9.6711 29.871 9.89168 29.6623C9.93937 29.6146 10.0467 29.5132 10.0348 29.4357C10.0348 29.4119 10.0109 29.388 9.99303 29.382C9.77245 29.3224 9.55187 29.2509 9.33128 29.1793C8.79473 29.0064 8.26415 28.8096 7.73952 28.6009C7.09566 28.3385 6.49353 27.8793 6.04045 27.3546C5.64102 26.8835 5.27736 26.2573 5.25947 25.6252C5.24755 25.1243 5.37274 24.6294 5.58736 24.1762C5.68275 23.9734 5.80198 23.7588 5.9391 23.5858C4.92562 23.1088 3.82271 22.5065 3.08943 21.6418C2.47537 20.9143 2.20114 20.0974 2.04613 19.1671C1.93286 18.4754 2.0044 17.7479 2.49326 17.2112C2.66615 17.0204 2.94635 16.8117 3.19673 16.7401C2.78538 16.43 2.39191 15.9947 2.07594 15.5892C1.37247 14.6768 0.889572 13.6154 0.7763 12.4645C0.710722 11.7668 0.716684 10.7352 1.32477 10.2641C1.52151 10.115 1.82555 10.0136 2.07594 10.0494L18.244 11.4388C18.2917 11.4388 18.3274 11.4806 18.3274 11.5283C18.3274 11.6058 18.3274 11.6893 18.3334 11.7668C18.3513 12.2498 18.393 12.7388 18.4288 13.2218C18.4705 13.7943 18.6255 14.3668 18.9296 14.8557C19.0309 15.0227 19.1919 15.2374 19.3469 15.3566C19.788 14.9273 20.2948 14.5635 20.8373 14.2773C21.0519 14.164 21.2904 14.0507 21.5229 13.9791C22.6019 11.731 24.3308 10.0434 26.7036 9.2086C27.419 8.95814 28.1701 8.79117 28.9273 8.72558C29.2313 8.69576 29.5532 8.67787 29.8632 8.70173H29.9169H29.9706C30.2806 8.67787 30.5965 8.70173 30.9065 8.72558C31.6637 8.79117 32.4148 8.95814 33.1302 9.2086C35.503 10.0434 37.2259 11.731 38.3109 13.9791H38.3467Z" fill="#4B66EA"/>
<path d="M30.3524 57.5518C30.2391 57.5518 30.1318 57.5518 30.0126 57.5458C30.0007 57.5458 29.9947 57.5458 29.9888 57.5458H29.953H29.9172C29.9053 57.5458 29.8993 57.5458 29.8934 57.5458C28.868 57.5935 27.9379 57.4266 27.1272 57.0509C26.4773 56.7468 25.905 56.3114 25.4281 55.7569C25.0883 55.3573 24.8021 54.9101 24.5815 54.4152C24.51 54.2542 24.4206 54.0514 24.3609 53.8427C23.9496 53.9798 23.3832 54.0514 22.8407 54.0395C21.6603 54.0097 20.6051 53.5624 19.7883 52.7395C18.9716 51.9106 18.6258 50.873 18.7928 49.7341C18.8703 49.2033 19.067 48.6189 19.2995 48.2373C19.2995 48.2373 19.3055 48.2254 19.3114 48.2254L22.5188 44.081C22.5188 44.081 22.5307 44.069 22.5367 44.0631L22.5486 44.0511L24.3609 41.7553L23.2103 38.404L21.8451 35.9174C21.7319 36.0724 21.5649 36.2274 21.4457 36.3348C21.3801 36.3944 21.3205 36.454 21.2549 36.5137C21.1595 36.6031 21.0641 36.6985 20.9628 36.788C20.6707 37.0504 20.3905 37.271 20.1162 37.4618C19.2816 38.0343 18.5483 38.2609 17.9283 38.1357C17.0221 37.9508 16.1696 37.5572 15.6152 37.2591C15.1561 37.0086 14.3334 36.5137 14.0234 36.0068C13.8207 35.6729 13.8565 35.3091 14.1307 34.9692C14.2202 34.8559 14.3394 34.7426 14.4646 34.6472C13.6657 34.6114 12.8609 34.3371 12.1455 34.0926C10.9591 33.6871 9.55814 32.9119 9.19448 31.9459C8.99178 31.4092 9.14082 30.8665 9.30179 30.5028C9.41506 30.2404 9.63564 29.8588 9.88603 29.6322C10.0172 29.5129 10.0172 29.4652 10.0112 29.4533C10.0112 29.4533 10.0112 29.4473 10.0053 29.4473C9.77276 29.3817 9.54025 29.3102 9.34352 29.2446C8.80697 29.0716 8.27042 28.8748 7.74579 28.6602C7.12578 28.4097 6.49981 27.9505 6.02883 27.4019C5.74267 27.068 5.25382 26.3882 5.23593 25.6428C5.22401 25.1657 5.33728 24.6529 5.56979 24.1699C5.67113 23.9552 5.77844 23.7704 5.89172 23.6213C4.97362 23.186 3.8409 22.5777 3.08377 21.6892C2.52934 21.0392 2.20741 20.264 2.02856 19.1906C1.89144 18.3617 2.05241 17.67 2.48761 17.193C2.63665 17.032 2.88108 16.8411 3.11954 16.7398C2.6903 16.3999 2.31472 15.9586 2.06433 15.6366C1.31316 14.6646 0.860073 13.5733 0.752763 12.482C0.645454 11.3669 0.836227 10.6096 1.31912 10.2339C1.5397 10.061 1.86163 9.97154 2.11202 10.0073L18.2741 11.3967C18.3516 11.4027 18.4052 11.4623 18.4052 11.5399C18.4052 11.5995 18.4052 11.6591 18.4052 11.7128V11.7724C18.4291 12.2376 18.4589 12.6848 18.5006 13.2274C18.5483 13.8416 18.7153 14.3962 18.9895 14.8375C19.0491 14.9329 19.1922 15.1535 19.3591 15.2967C19.8003 14.8733 20.2951 14.5215 20.8257 14.2412C21.0105 14.1458 21.2549 14.0205 21.4993 13.943C22.6261 11.6174 24.4206 9.96558 26.6979 9.16651C27.4252 8.9101 28.1764 8.74909 28.9395 8.67753C29.2257 8.65368 29.5595 8.62983 29.8814 8.65368C29.8814 8.65368 29.8874 8.65368 29.8934 8.65368H29.9351H29.9828C29.9828 8.65368 29.9828 8.65368 29.9947 8.65368C30.3226 8.62983 30.6565 8.65368 30.9367 8.67753C31.6938 8.74313 32.4509 8.9101 33.1782 9.16651C35.4556 9.96558 37.2501 11.6174 38.3768 13.943C38.6212 14.0205 38.8657 14.1398 39.0505 14.2412C39.5811 14.5215 40.0759 14.8733 40.517 15.2967C40.678 15.1535 40.8271 14.9329 40.8867 14.8375C41.1609 14.3962 41.3278 13.8416 41.3755 13.2274C41.4173 12.6908 41.453 12.2435 41.4709 11.7724V11.7128C41.4709 11.6532 41.4769 11.5995 41.4769 11.5399C41.4769 11.4623 41.5365 11.4027 41.608 11.3967L57.7761 10.0073C58.0205 9.97154 58.3424 10.061 58.563 10.2339C59.0459 10.6096 59.2367 11.3669 59.1294 12.482C59.022 13.5733 58.569 14.6646 57.8178 15.6366C57.5734 15.9526 57.1918 16.3999 56.7626 16.7398C57.001 16.8352 57.2455 17.032 57.3945 17.193C57.8357 17.67 57.9907 18.3617 57.8536 19.1906C57.6747 20.264 57.3528 21.0392 56.7984 21.6892C56.0472 22.5777 54.9145 23.186 53.9904 23.6213C54.0977 23.7644 54.205 23.9492 54.3123 24.1699C54.5448 24.6529 54.6581 25.1598 54.6462 25.6428C54.6283 26.3882 54.1394 27.068 53.8533 27.4019C53.3823 27.9505 52.7563 28.4097 52.1363 28.6602C51.6177 28.8689 51.0811 29.0657 50.5386 29.2446C50.3419 29.3102 50.1094 29.3817 49.8769 29.4473C49.8769 29.4473 49.8769 29.4473 49.8769 29.4533C49.8769 29.4592 49.8769 29.5129 50.0021 29.6322C50.2465 29.8588 50.4671 30.2464 50.5863 30.5028C50.7473 30.8665 50.8963 31.4152 50.6936 31.9459C50.3299 32.9059 48.929 33.6812 47.7426 34.0926C47.0272 34.3371 46.2224 34.6114 45.4235 34.6472C45.5487 34.7426 45.6679 34.8559 45.7574 34.9692C46.0316 35.3151 46.0733 35.6729 45.8647 36.0068C45.5547 36.5137 44.7319 37.0086 44.2729 37.2591C43.7185 37.5572 42.8659 37.9568 41.9598 38.1357C41.3398 38.2609 40.6005 38.0343 39.7718 37.4618C39.4976 37.271 39.2174 37.0504 38.9253 36.788C38.8239 36.6985 38.7285 36.6031 38.6332 36.5137C38.5676 36.454 38.508 36.3944 38.4424 36.3348C38.3232 36.2274 38.1562 36.0664 38.043 35.9174L36.6777 38.404L35.5271 41.7553L37.3395 44.0511L37.3514 44.0631C37.3514 44.0631 37.3633 44.075 37.3693 44.081L40.5767 48.2254C40.5767 48.2254 40.5826 48.2313 40.5886 48.2373C40.8211 48.6189 41.0178 49.2093 41.0953 49.7341C41.2623 50.873 40.9165 51.9166 40.0997 52.7395C39.2889 53.5624 38.2337 54.0156 37.0474 54.0395C36.5049 54.0514 35.9445 53.9798 35.5271 53.8427C35.4675 54.0514 35.3781 54.2601 35.3066 54.4152C35.086 54.9041 34.7998 55.3573 34.46 55.7569C33.9831 56.3174 33.4107 56.7527 32.7609 57.0509C32.0455 57.3848 31.2288 57.5518 30.3345 57.5518H30.3524ZM29.953 57.4206L30.0126 57.4325C30.0126 57.4325 30.0126 57.4325 30.0186 57.4325C31.0261 57.4802 31.9442 57.3133 32.7311 56.9495C33.3631 56.6573 33.9235 56.228 34.3885 55.6794C34.7223 55.2858 35.0025 54.8445 35.2171 54.3674C35.2946 54.2005 35.39 53.9739 35.4437 53.7532L35.4556 53.6996L35.5093 53.7175C35.9862 53.8844 36.6181 53.9381 37.0474 53.9262C38.2039 53.8964 39.2293 53.461 40.0222 52.656C40.8151 51.857 41.149 50.8432 40.988 49.74C40.9165 49.2272 40.7197 48.6547 40.4992 48.279L37.2918 44.1287L37.2679 44.1108L35.4139 41.7613L36.5883 38.3444L38.043 35.6967L38.0907 35.7802C38.186 35.9412 38.3887 36.132 38.5199 36.2513C38.5855 36.3109 38.651 36.3706 38.7107 36.4302C38.8061 36.5196 38.9014 36.6151 39.0028 36.6985C39.2949 36.9609 39.5632 37.1756 39.8374 37.3604C40.6482 37.915 41.3576 38.1357 41.9478 38.0164C42.8421 37.8375 43.6827 37.4439 44.2371 37.1458C44.6902 36.9013 45.495 36.4183 45.7931 35.9352C45.9779 35.6371 45.9422 35.327 45.6918 35.0169C45.5725 34.8678 45.3997 34.7188 45.2446 34.6233L45.0777 34.522H45.2745C46.1151 34.522 46.9735 34.2298 47.7307 33.9674C48.8932 33.5679 50.2644 32.8105 50.6161 31.8862C50.8069 31.3853 50.6638 30.8665 50.5088 30.5207C50.3955 30.2702 50.1869 29.9005 49.9544 29.6858C49.8351 29.5785 49.7815 29.489 49.7934 29.4115C49.7994 29.3698 49.8351 29.328 49.8769 29.3161C50.1094 29.2505 50.3359 29.179 50.5386 29.1134C51.0752 28.9404 51.6057 28.7436 52.1244 28.5349C52.7325 28.2904 53.3406 27.8372 53.7996 27.3006C54.0798 26.9726 54.5508 26.3226 54.5687 25.607C54.5806 25.1478 54.4673 24.6529 54.2468 24.1818C54.1335 23.9433 54.0143 23.7465 53.901 23.6034L53.8592 23.5497L53.9189 23.5199C54.837 23.0905 55.9935 22.4823 56.7507 21.5878C57.2872 20.9498 57.6091 20.1984 57.782 19.1429C57.8714 18.5883 57.8714 17.8072 57.3468 17.2347C57.1918 17.0677 56.9176 16.8531 56.6672 16.7815L56.5658 16.7517L56.6493 16.6861C57.1024 16.3462 57.5018 15.8751 57.7582 15.5412C58.4974 14.587 58.9445 13.5137 59.0459 12.4403C59.1472 11.3789 58.9684 10.6335 58.5213 10.2876C58.3245 10.1325 58.0324 10.0491 57.8118 10.0789L41.6378 11.4683C41.6378 11.4683 41.6021 11.4862 41.6021 11.5041C41.6021 11.5637 41.6021 11.6233 41.6021 11.683V11.7426C41.5782 12.2137 41.5484 12.6609 41.5067 13.1976C41.459 13.8297 41.2861 14.4022 40.9999 14.8554C40.9344 14.9627 40.7615 15.2251 40.5707 15.3682L40.5349 15.398L40.4992 15.3682C40.058 14.9389 39.5572 14.5811 39.0207 14.2949C38.8299 14.1935 38.5855 14.0742 38.341 13.9967H38.3172L38.3053 13.9669C37.1964 11.6591 35.4139 10.0192 33.1544 9.22614C32.439 8.97569 31.6938 8.80872 30.9426 8.74313C30.6624 8.71927 30.3345 8.69542 30.0186 8.71927H29.9589H29.8993C29.5774 8.69542 29.2495 8.71927 28.9693 8.74313C28.2181 8.80872 27.4729 8.97569 26.7575 9.22614C24.4981 10.0192 22.7215 11.6591 21.6067 13.9669L21.5947 13.9907H21.5709C21.3265 14.0742 21.082 14.1935 20.8913 14.2949C20.3547 14.5751 19.8599 14.9389 19.4128 15.3682L19.377 15.398L19.3412 15.3682C19.1505 15.2191 18.9776 14.9568 18.912 14.8554C18.6318 14.4022 18.4529 13.8238 18.4052 13.1976C18.3635 12.6609 18.3277 12.2077 18.3099 11.7426V11.683C18.3099 11.6233 18.3039 11.5637 18.3039 11.5041C18.3039 11.4862 18.286 11.4683 18.2681 11.4683L2.1001 10.0789C1.87952 10.0491 1.5874 10.1325 1.39066 10.2876C0.943537 10.6335 0.758725 11.3789 0.866035 12.4403C0.967383 13.5137 1.41451 14.587 2.15375 15.5412C2.41011 15.8751 2.8155 16.3402 3.26262 16.6861L3.34609 16.7517L3.24474 16.7815C2.99435 16.8531 2.72011 17.0677 2.56511 17.2347C2.04048 17.8072 2.04048 18.5883 2.12991 19.1429C2.3028 20.1984 2.62473 20.9557 3.16127 21.5878C3.91841 22.4823 5.06901 23.0905 5.99306 23.5199L6.05268 23.5497L6.01095 23.6034C5.89172 23.7525 5.77844 23.9433 5.66517 24.1818C5.44459 24.6529 5.33132 25.1419 5.34324 25.607C5.36113 26.3226 5.8321 26.9726 6.1123 27.3006C6.57135 27.8372 7.1854 28.2845 7.78752 28.5349C8.30619 28.7436 8.83678 28.9404 9.37333 29.1134C9.57006 29.179 9.80257 29.2505 10.0291 29.3161C10.0708 29.328 10.1066 29.3698 10.1126 29.4115C10.1245 29.4831 10.0708 29.5725 9.95161 29.6858C9.7191 29.9005 9.50448 30.2702 9.39717 30.5207C9.24217 30.8665 9.09909 31.3853 9.28986 31.8862C9.6416 32.8105 11.0128 33.5679 12.1753 33.9674C12.9324 34.2238 13.7909 34.522 14.6315 34.522H14.8282L14.6613 34.6233C14.5063 34.7188 14.3334 34.8678 14.2142 35.0169C13.9638 35.327 13.928 35.6371 14.1128 35.9352C14.4109 36.4242 15.2158 36.9013 15.6688 37.1458C16.2173 37.4439 17.0579 37.8315 17.9581 38.0164C18.5483 38.1357 19.2578 37.915 20.0686 37.3604C20.3428 37.1756 20.6111 36.955 20.9032 36.6985C21.0045 36.6091 21.0999 36.5196 21.1953 36.4302C21.2609 36.3706 21.3205 36.3109 21.3861 36.2513C21.5172 36.1261 21.7199 35.9412 21.8153 35.7802L21.863 35.6967L23.3177 38.3563L24.4861 41.7672L22.6261 44.1227L22.6082 44.1346L19.4008 48.279C19.1743 48.6547 18.9835 49.2272 18.906 49.74C18.7451 50.8492 19.0789 51.857 19.8718 52.656C20.6647 53.461 21.6961 53.8964 22.8467 53.9262C23.2759 53.9381 23.9019 53.8844 24.3848 53.7175L24.4384 53.6996L24.4504 53.7532C24.51 53.9739 24.6054 54.2005 24.6769 54.3674C24.8915 54.8445 25.1717 55.2917 25.5056 55.6794C25.9706 56.228 26.531 56.6513 27.1629 56.9495C27.9558 57.3192 28.868 57.4802 29.8755 57.4325C29.8755 57.4325 29.8755 57.4325 29.8814 57.4325L29.9411 57.4206H29.953Z" fill="white"/>
<path fill-rule="evenodd" clip-rule="evenodd" d="M13.5103 12.3802C11.7993 12.2251 10.0884 12.0701 8.37735 11.921C7.15521 11.8137 5.92711 11.7123 4.70497 11.6109C4.27573 11.5751 3.84649 11.5453 3.41725 11.5155C3.28013 11.5096 3.14898 11.4976 3.01186 11.4917C2.94032 11.4917 2.87474 11.4857 2.8032 11.4917C2.33819 11.5274 2.1653 11.8077 2.29646 12.243C2.56473 13.1375 2.94032 13.9425 3.47091 14.7118C3.81072 15.2127 4.22804 15.6719 4.68112 16.0714C4.8242 16.1966 5.31306 16.5902 5.48595 16.5902C5.53364 16.5902 5.57537 16.5783 5.61711 16.5723C5.71845 16.5544 5.81384 16.5365 5.91519 16.5186C6.24308 16.459 6.57097 16.3994 6.89886 16.3397C7.85869 16.1668 8.81852 15.9879 9.77834 15.809C11.1316 15.5586 12.4849 15.3081 13.8323 15.0576C13.88 15.0517 13.9098 15.004 13.9038 14.9563L13.5878 12.4517C13.5878 12.41 13.5461 12.3742 13.5044 12.3742L13.5103 12.3802Z" fill="#D8EFFC"/>
<path fill-rule="evenodd" clip-rule="evenodd" d="M29.4344 23.6272C29.4106 23.502 29.3808 23.3768 29.3569 23.2515C29.2556 22.7745 29.1483 22.3034 29.029 21.8323C28.6892 20.4965 28.2719 19.1548 27.6936 17.9026C27.3419 17.1333 26.7875 15.9764 26.1376 15.4398C25.6667 15.0581 25.2017 15.0402 24.6353 15.1833C24.0511 15.3324 23.5741 15.7439 23.3297 16.2985C23.0316 16.9783 23.1389 17.7296 23.4549 18.3796C24.2418 20.0016 27.6996 22.8222 29.2914 23.7345C29.3271 23.7524 29.3689 23.7524 29.3987 23.7345C29.4285 23.7107 29.4464 23.6749 29.4404 23.6332L29.4344 23.6272Z" fill="#D8EFFC"/>
<path fill-rule="evenodd" clip-rule="evenodd" d="M30.6204 23.7341C32.2121 22.8217 35.6699 20.0011 36.4568 18.3792C36.7728 17.7292 36.8801 16.9778 36.582 16.298C36.3376 15.7494 35.8607 15.332 35.2764 15.1829C34.7101 15.0398 34.2451 15.0517 33.7741 15.4393C33.1183 15.976 32.5698 17.1388 32.2181 17.9021C31.6398 19.1603 31.2225 20.4961 30.8827 21.8318C30.7635 22.3029 30.6561 22.774 30.5548 23.2511C30.5309 23.3763 30.5011 23.5015 30.4773 23.6268C30.4713 23.6685 30.4833 23.7043 30.519 23.7281C30.5488 23.752 30.5906 23.752 30.6263 23.7281L30.6204 23.7341Z" fill="#D8EFFC"/>
<path fill-rule="evenodd" clip-rule="evenodd" d="M29.9521 11.1162C29.4931 11.0924 29.0162 11.1222 28.5631 11.1759C27.5496 11.2892 26.5361 11.5336 25.5942 11.9272C25.5584 11.9391 25.5405 11.969 25.5345 12.0047C25.5345 12.0405 25.5405 12.0703 25.5703 12.0942C25.9757 12.446 26.3573 12.8277 26.7209 13.2153C27.3827 13.9249 28.1338 14.8432 28.4796 15.7556C28.8075 16.6262 29.0937 17.5088 29.3321 18.4032C29.5467 19.2202 29.7196 20.0431 29.8627 20.872C29.8687 20.9197 29.9104 20.9555 29.9641 20.9555C30.0177 20.9555 30.0535 20.9197 30.0654 20.872C30.2085 20.0431 30.3814 19.2202 30.596 18.4032C30.8285 17.5028 31.1206 16.6202 31.4485 15.7556C31.7943 14.8432 32.5455 13.9249 33.2072 13.2153C33.5709 12.8277 33.9524 12.446 34.3578 12.0942C34.3876 12.0703 34.3995 12.0346 34.3936 12.0047C34.3936 11.969 34.3638 11.9391 34.334 11.9272C33.3861 11.5396 32.3785 11.2892 31.365 11.1759C30.912 11.1281 30.435 11.0924 29.976 11.1162H29.9521Z" fill="#D8EFFC"/>
<path fill-rule="evenodd" clip-rule="evenodd" d="M33.4339 42.2678C33.2789 43.693 33.2193 45.1421 33.273 46.5792C33.2968 47.2232 33.3385 47.8732 33.4339 48.5173C33.4995 48.9705 33.5889 49.4654 33.7737 49.8828C34.048 50.5209 34.507 51.0814 35.127 51.4154C35.6099 51.6777 36.2061 51.791 36.7367 51.6121C37.2911 51.4273 37.625 50.9741 37.7442 50.4135C37.929 49.5548 37.625 48.5411 37.2852 47.754C36.999 47.098 36.6413 46.4778 36.2598 45.8696C35.8603 45.2375 35.4371 44.6233 35.0019 44.021C34.5547 43.4068 34.1016 42.8045 33.6187 42.2201C33.5949 42.1903 33.5532 42.1784 33.5114 42.1844C33.4697 42.1963 33.4459 42.2261 33.4399 42.2678H33.4339Z" fill="#D8EFFC"/>
<path fill-rule="evenodd" clip-rule="evenodd" d="M29.9585 55.1488C31.5025 55.0951 32.2418 54.3497 32.4683 53.1749C32.6651 52.1195 32.4445 51.0222 32.3133 49.9668C32.2358 49.3525 32.0451 48.7383 31.8245 48.148C31.5979 47.5457 31.3297 46.9494 31.0316 46.371C30.7275 45.7746 30.4056 45.1843 30.0479 44.6118C30.03 44.582 29.9942 44.5701 29.9585 44.5701C29.9227 44.5701 29.8869 44.588 29.869 44.6118C29.5113 45.1843 29.1894 45.7746 28.8854 46.371C28.5873 46.9553 28.319 47.5457 28.0925 48.148C27.8719 48.7383 27.6811 49.3525 27.6036 49.9668C27.4665 51.0222 27.2459 52.1195 27.4486 53.1749C27.6692 54.3497 28.4084 55.0951 29.9585 55.1488C29.9585 55.1488 29.9585 55.1488 29.9644 55.1488H29.9585Z" fill="#D8EFFC"/>
<path fill-rule="evenodd" clip-rule="evenodd" d="M26.292 42.2202C25.8151 42.8046 25.3561 43.4128 24.9089 44.0211C24.4678 44.6233 24.0445 45.2376 23.651 45.8697C23.2695 46.4719 22.9118 47.0981 22.6256 47.754C22.2858 48.5412 21.9758 49.5549 22.1666 50.4136C22.2858 50.9741 22.6197 51.4273 23.1741 51.6122C23.7047 51.7911 24.3009 51.6778 24.7837 51.4154C25.3978 51.0815 25.8628 50.5209 26.137 49.8829C26.3159 49.4655 26.4053 48.9705 26.4769 48.5173C26.5722 47.8792 26.614 47.2293 26.6378 46.5793C26.6915 45.1481 26.6378 43.6991 26.4769 42.2679C26.4769 42.2261 26.447 42.1963 26.4053 42.1844C26.3636 42.1725 26.3278 42.1844 26.298 42.2202H26.292Z" fill="#D8EFFC"/>
<path fill-rule="evenodd" clip-rule="evenodd" d="M25.5524 16.1072C24.8847 16.1072 24.3481 16.6439 24.3481 17.3117C24.3481 17.9796 24.8847 18.5163 25.5524 18.5163C26.2201 18.5163 26.7567 17.9796 26.7567 17.3117C26.7567 16.6439 26.2201 16.1072 25.5524 16.1072Z" fill="#447EF7"/>
<path fill-rule="evenodd" clip-rule="evenodd" d="M34.3516 16.1072C35.0193 16.1072 35.5559 16.6439 35.5559 17.3117C35.5559 17.9796 35.0193 18.5163 34.3516 18.5163C33.6839 18.5163 33.1473 17.9796 33.1473 17.3117C33.1473 16.6439 33.6839 16.1072 34.3516 16.1072Z" fill="#447EF7"/>
<path fill-rule="evenodd" clip-rule="evenodd" d="M15.15 12.6133C15.15 12.6789 15.15 12.7505 15.15 12.8161C15.15 15.8633 17.0816 18.5825 19.9611 19.5783C20.0088 19.5962 20.0624 19.5724 20.0743 19.5247L20.6526 17.8788C20.6526 17.8788 20.6586 17.8311 20.6526 17.8073C20.6407 17.7834 20.6228 17.7715 20.599 17.7596C18.5601 17.1811 17.1531 15.3147 17.1531 13.1977C17.1531 13.0546 17.1591 12.9175 17.171 12.7803C17.171 12.7565 17.171 12.7326 17.1472 12.7147C17.1293 12.6968 17.1114 12.6849 17.0875 12.6849L15.2573 12.5239C15.2573 12.5239 15.2096 12.5239 15.1858 12.5477C15.1679 12.5656 15.156 12.5895 15.156 12.6133H15.15ZM15.3348 18.1352C15.2335 17.7715 14.995 17.1871 14.6969 16.9545C14.4704 16.7756 14.1961 16.7458 13.9159 16.7577C13.4807 16.7697 13.0455 16.8651 12.6223 16.9366C12.0142 17.044 11.4001 17.1394 10.7861 17.2408C9.79047 17.4018 8.80083 17.5628 7.80523 17.7238C6.48174 17.9385 5.15826 18.1472 3.83477 18.3618C3.799 18.3618 3.77515 18.3917 3.76323 18.4215C3.67976 18.6719 3.66188 19.0118 3.67976 19.2802C3.73938 20.0315 4.11497 20.6577 4.6694 21.1586C5.27749 21.7012 5.975 22.1485 6.72021 22.4764C7.03022 22.6136 7.36407 22.7448 7.69196 22.8163C7.69196 22.8163 7.69196 22.8163 7.69792 22.8163C7.8887 22.8402 8.13312 22.7985 8.30601 22.7209C8.81872 22.4824 9.31353 22.22 9.80239 21.9457C10.3986 21.6118 10.9888 21.2719 11.579 20.9201C12.664 20.2701 13.743 19.6022 14.7923 18.8866C15.0188 18.7316 15.3527 18.4513 15.3408 18.1531C15.3408 18.1472 15.3408 18.1412 15.3408 18.1352H15.3348ZM16.4258 19.6559L7.32234 25.0227C7.20311 25.0943 7.07791 25.2314 7.01233 25.3567C6.83944 25.6727 6.95868 25.9768 7.17926 26.2332C7.57273 26.6865 8.39544 27.1277 8.93199 27.402C9.2718 27.575 9.62354 27.736 9.97528 27.8731C10.2197 27.9685 10.482 28.0759 10.7443 28.1295C10.9649 28.1713 11.2451 28.2369 11.4657 28.2071C11.6326 28.1892 11.7399 28.1176 11.8711 28.0222C12.1632 27.8075 12.4553 27.6048 12.7475 27.402C13.3436 26.9786 13.9398 26.5553 14.536 26.1259C15.2335 25.625 15.925 25.1122 16.6106 24.5993C17.2008 24.1521 17.791 23.7049 18.3574 23.2338C18.7628 22.8939 19.5855 22.1902 19.7584 21.7012C19.8538 21.4269 19.7345 21.2838 19.5318 21.1228C19.4603 21.0691 19.3828 21.0274 19.3053 20.9856C19.1741 20.9141 19.043 20.8485 18.9118 20.7829C18.572 20.61 18.2262 20.449 17.8745 20.288C17.4214 20.0792 16.9623 19.8705 16.5093 19.6618C16.4795 19.6499 16.4496 19.6499 16.4258 19.6618V19.6559ZM19.4901 24.0686C18.4408 24.8617 17.3975 25.6667 16.3602 26.4718C15.5375 27.1158 14.7148 27.7658 13.8981 28.4217C13.5463 28.708 13.2005 28.9942 12.8607 29.2804C12.6044 29.5011 12.348 29.7157 12.1096 29.9483C11.7638 30.2823 11.0126 30.9978 10.9888 31.4928C10.9649 31.9162 11.4776 32.1428 11.8055 32.2799C12.0976 32.3992 12.3778 32.5423 12.6699 32.6616C13.0098 32.8047 13.3555 32.9239 13.7132 32.9955C14.6969 33.2042 15.6389 33.0611 16.5689 32.7033C16.6523 32.6854 16.7537 32.6317 16.8252 32.584C17.0637 32.4409 17.2783 32.2322 17.4631 32.0235C18.1726 31.2006 18.888 30.3836 19.6034 29.5667C19.6034 29.5667 19.6034 29.5607 19.6093 29.5547C19.8418 29.191 19.9968 28.6424 19.9968 28.2071C19.9968 27.6644 19.9789 27.1277 19.9551 26.591C19.9313 26.0066 19.9014 25.4282 19.8597 24.8438C19.8478 24.6828 19.818 24.0925 19.6809 24.0149C19.6689 24.009 19.657 24.003 19.6451 24.003C19.5974 24.003 19.5437 24.0328 19.502 24.0567C19.502 24.0567 19.502 24.0567 19.4961 24.0567L19.4901 24.0686ZM15.9489 35.2913C15.8058 35.4225 15.9966 35.6909 16.0919 35.8042C16.6941 36.5138 17.4512 36.9133 18.3872 36.645C18.9893 36.472 19.5318 36.0248 19.9611 35.5835C20.2711 35.2615 20.5334 34.9097 20.7957 34.5519C20.8493 34.4803 20.9567 34.3551 20.9686 34.2657C20.9805 34.1702 20.903 33.9675 20.8732 33.8721C20.7242 33.395 20.599 32.6914 20.6347 32.1964C20.6526 31.9877 20.6168 31.7611 20.5692 31.5584C20.5453 31.457 20.4917 31.29 20.438 31.2065C20.4201 31.1827 20.4022 31.1708 20.3724 31.1648C20.3426 31.1648 20.3188 31.1648 20.3009 31.1887L15.9548 35.2854C15.9548 35.2854 15.9548 35.2854 15.9489 35.2854V35.2913ZM43.9568 35.2913C44.0998 35.4225 43.9091 35.6909 43.8137 35.8042C43.2115 36.5138 42.4544 36.9133 41.5184 36.645C40.9163 36.472 40.3738 36.0248 39.9446 35.5835C39.6345 35.2615 39.3722 34.9097 39.1099 34.5519C39.0563 34.4803 38.949 34.3551 38.937 34.2657C38.9251 34.1702 39.0026 33.9675 39.0324 33.8721C39.1815 33.395 39.3067 32.6914 39.2709 32.1964C39.253 31.9877 39.2888 31.7611 39.3365 31.5584C39.3603 31.457 39.414 31.29 39.4676 31.2065C39.4855 31.1827 39.5034 31.1708 39.5332 31.1648C39.563 31.1648 39.5869 31.1648 39.6047 31.1887L43.9508 35.2854C43.9508 35.2854 43.9508 35.2854 43.9568 35.2854V35.2913ZM40.4155 24.0686C41.4648 24.8617 42.5081 25.6667 43.5454 26.4718C44.3681 27.1158 45.1908 27.7658 46.0076 28.4217C46.3593 28.708 46.7051 28.9942 47.0449 29.2804C47.3012 29.5011 47.5576 29.7157 47.7961 29.9483C48.1418 30.2823 48.893 30.9978 48.9169 31.4928C48.9407 31.9162 48.428 32.1428 48.1001 32.2799C47.808 32.3992 47.5278 32.5423 47.2357 32.6616C46.8959 32.8047 46.5501 32.9239 46.1924 32.9955C45.2087 33.2042 44.2668 33.0611 43.3367 32.7033C43.2533 32.6854 43.1519 32.6317 43.0804 32.584C42.8419 32.4409 42.6273 32.2322 42.4425 32.0235C41.7331 31.2006 41.0177 30.3836 40.3022 29.5667C40.3022 29.5667 40.3023 29.5607 40.2963 29.5547C40.0638 29.191 39.9088 28.6424 39.9088 28.2071C39.9088 27.6644 39.9267 27.1277 39.9505 26.591C39.9744 26.0066 40.0042 25.4282 40.0459 24.8438C40.0578 24.6828 40.0876 24.0925 40.2248 24.0149C40.2367 24.009 40.2486 24.003 40.2605 24.003C40.3082 24.003 40.3619 24.0328 40.4036 24.0567C40.4036 24.0567 40.4036 24.0567 40.4096 24.0567L40.4155 24.0686ZM46.3891 12.3748C48.1001 12.2198 49.8111 12.0647 51.5221 11.9156C52.7442 11.8083 53.9723 11.7069 55.1945 11.6056C55.6237 11.5698 56.053 11.54 56.4822 11.5101C56.6193 11.5042 56.7505 11.4923 56.8876 11.4863C56.9591 11.4863 57.0247 11.4803 57.0963 11.4863C57.5613 11.5221 57.7342 11.8023 57.603 12.2377C57.3347 13.1321 56.9591 13.9372 56.4285 14.7064C56.0887 15.2073 55.6714 15.6665 55.2183 16.066C55.0753 16.1912 54.5864 16.5848 54.4135 16.5848C54.3658 16.5848 54.3241 16.5729 54.2824 16.5669C54.181 16.549 54.0856 16.5311 53.9843 16.5133C53.6564 16.4536 53.3285 16.394 53.0006 16.3344C52.0408 16.1614 51.0809 15.9825 50.1211 15.8036C48.7678 15.5532 47.4145 15.3027 46.0672 15.0523C46.0195 15.0463 45.9897 14.9986 45.9956 14.9509L46.3116 12.4464C46.3116 12.4046 46.3533 12.3688 46.3951 12.3688L46.3891 12.3748ZM44.5648 18.1293C44.6662 17.7655 44.9047 17.1811 45.2027 16.9486C45.4293 16.7697 45.7035 16.7399 45.9837 16.7518C46.4189 16.7637 46.8541 16.8591 47.2774 16.9307C47.8855 17.038 48.4995 17.1334 49.1136 17.2348C50.1092 17.3958 51.0988 17.5568 52.0944 17.7178C53.4179 17.9325 54.7414 18.1412 56.0649 18.3559C56.1007 18.3559 56.1245 18.3857 56.1364 18.4155C56.2199 18.666 56.2378 19.0059 56.2199 19.2742C56.1603 20.0256 55.7847 20.6517 55.2303 21.1526C54.6222 21.6953 53.9247 22.1425 53.1794 22.4705C52.8694 22.6076 52.5356 22.7388 52.2077 22.8104C52.2077 22.8104 52.2077 22.8104 52.2017 22.8104C52.011 22.8342 51.7665 22.7925 51.5936 22.715C51.0809 22.4764 50.5861 22.2141 50.0973 21.9398C49.5011 21.6058 48.9109 21.2659 48.3207 20.9141C47.2357 20.2641 46.1566 19.5962 45.1074 18.8806C44.8808 18.7256 44.547 18.4453 44.5589 18.1472C44.5589 18.1412 44.5589 18.1352 44.5589 18.1293H44.5648ZM43.4739 19.6499L52.5773 25.0168C52.6965 25.0883 52.8217 25.2255 52.8873 25.3507C53.0602 25.6667 52.941 25.9709 52.7264 26.2273C52.3329 26.6805 51.5102 27.1218 50.9736 27.3961C50.6338 27.569 50.2821 27.73 49.9303 27.8672C49.6859 27.9626 49.4236 28.0699 49.1613 28.1236C48.9407 28.1653 48.6605 28.2309 48.4399 28.2011C48.273 28.1832 48.1657 28.1117 48.0345 28.0162C47.7424 27.8016 47.4503 27.5988 47.1582 27.3961C46.562 26.9727 45.9658 26.5493 45.3697 26.1199C44.6721 25.619 43.9806 25.1062 43.295 24.5934C42.7048 24.1461 42.1146 23.6989 41.5482 23.2278C41.1428 22.8879 40.3201 22.1842 40.1473 21.6953C40.0519 21.421 40.1711 21.2778 40.3738 21.1168C40.4453 21.0632 40.5228 21.0214 40.6003 20.9797C40.7315 20.9081 40.8626 20.8425 40.9938 20.7769C41.3336 20.604 41.6794 20.443 42.0311 20.282C42.4842 20.0733 42.9433 19.8646 43.3964 19.6559C43.4262 19.6439 43.456 19.6439 43.4798 19.6559L43.4739 19.6499ZM44.7437 12.6014C44.7437 12.667 44.7437 12.7386 44.7437 12.8042C44.7437 15.8513 42.8121 18.5706 39.9326 19.5664C39.8849 19.5843 39.8313 19.5604 39.8194 19.5127L39.2411 17.8669C39.2411 17.8669 39.2351 17.8192 39.2411 17.7953C39.253 17.7715 39.2709 17.7596 39.2947 17.7476C41.3336 17.1692 42.7406 15.3027 42.7406 13.1858C42.7406 13.0427 42.7346 12.9055 42.7227 12.7684C42.7227 12.7445 42.7227 12.7207 42.7465 12.7028C42.7644 12.6849 42.7823 12.673 42.8062 12.673L44.6364 12.512C44.6364 12.512 44.6841 12.512 44.7079 12.5358C44.7258 12.5537 44.7377 12.5776 44.7377 12.6014H44.7437Z" fill="#D8EFFC"/>
<path fill-rule="evenodd" clip-rule="evenodd" d="M10.9464 12.1485C10.9464 12.1485 10.1833 14.4801 9.47389 15.8755C8.61541 16.0365 7.76289 16.1916 6.90441 16.3466C6.57652 16.4062 6.24863 16.4659 5.92074 16.5255C5.81939 16.5434 5.724 16.5613 5.62265 16.5792C5.58092 16.5851 5.53323 16.5971 5.4915 16.5971C5.31861 16.5971 4.82975 16.2035 4.68667 16.0783C4.22762 15.6847 3.81627 15.2196 3.47645 14.7187C2.94587 13.9494 2.57624 13.1384 2.30201 12.2499C2.17085 11.8086 2.33778 11.5284 2.80875 11.4985C2.88029 11.4985 2.94587 11.4985 3.01741 11.4985C3.15453 11.5045 3.29164 11.5105 3.4228 11.5224C3.85204 11.5522 4.28128 11.582 4.71052 11.6178C5.93266 11.7132 7.16076 11.8205 8.3829 11.9279C9.24138 11.9994 10.0939 12.077 10.9524 12.1545L10.9464 12.1485ZM13.0032 16.8714C13.0211 17.3782 12.872 18.881 10.9881 21.2662C10.5947 21.4988 10.2012 21.7254 9.80178 21.946C9.31292 22.2203 8.81214 22.4827 8.3054 22.7212C8.13251 22.8047 7.88808 22.8405 7.69731 22.8167C7.69731 22.8167 7.69731 22.8167 7.69135 22.8167C7.36346 22.7391 7.02961 22.6079 6.7196 22.4768C5.97439 22.1488 5.27092 21.7075 4.66879 21.1589C4.11435 20.6639 3.73877 20.0319 3.67915 19.2805C3.66127 19.0181 3.67915 18.6782 3.76261 18.4218C3.77454 18.386 3.79838 18.3622 3.83415 18.3622C5.15764 18.1534 6.48113 17.9388 7.80462 17.7241C8.80022 17.5631 9.78985 17.4021 10.7855 17.2411C11.3995 17.1397 12.0076 17.0443 12.6216 16.937C12.7528 16.9131 12.878 16.8893 13.0092 16.8654L13.0032 16.8714ZM16.4192 19.6621H16.5086C16.5086 19.6621 16.7829 20.0736 17.5221 20.3539C18.2614 20.6341 17.5758 22.4231 17.2121 22.9896C16.9796 23.3533 15.835 24.7785 15.054 25.7446C14.8811 25.8698 14.7082 25.995 14.5353 26.1203C13.9392 26.5496 13.343 26.973 12.7468 27.3964C12.4547 27.6051 12.1566 27.8078 11.8705 28.0166C11.7393 28.112 11.626 28.1835 11.4651 28.2014C11.2445 28.2253 10.9643 28.1656 10.7437 28.1239C10.4814 28.0702 10.2191 27.9688 9.97467 27.8675C9.61697 27.7244 9.27119 27.5634 8.93138 27.3964C8.39483 27.128 7.56615 26.6868 7.17865 26.2276C6.95807 25.9712 6.84479 25.6671 7.01172 25.351C7.0773 25.2258 7.20249 25.0946 7.32173 25.0171L16.4192 19.6502V19.6621ZM17.7129 25.4285C17.7129 25.4285 18.4641 26.1262 18.5058 26.7285C18.5535 27.3308 18.6131 28.6188 17.9096 29.6743C17.2062 30.7298 16.9796 31.9046 17.0035 32.4711C16.9438 32.5188 16.8842 32.5605 16.8187 32.5963C16.7471 32.638 16.6458 32.6977 16.5623 32.7155C15.6323 33.0733 14.6903 33.2165 13.7067 33.0077C13.349 32.9302 13.0032 32.811 12.6634 32.6738C12.3713 32.5545 12.0911 32.4174 11.7989 32.2922C11.477 32.155 10.9583 31.9344 10.9822 31.505C11.006 31.0101 11.7572 30.2945 12.103 29.9606C12.3474 29.728 12.5978 29.5074 12.8541 29.2927C13.194 29.0005 13.5457 28.7142 13.8915 28.434C14.7023 27.7721 15.525 27.128 16.3536 26.484C16.8008 26.1322 17.2539 25.7863 17.7069 25.4345L17.7129 25.4285ZM18.5893 32.811L19.2033 36.2517C18.9529 36.4246 18.6787 36.5678 18.3925 36.6512C17.4566 36.9196 16.6994 36.5141 16.0973 35.8104C16.0019 35.6971 15.8111 35.4288 15.9542 35.2976C15.9542 35.2976 15.9542 35.2976 15.9602 35.2976L18.5893 32.8229V32.811ZM48.9639 12.1485C48.9639 12.1485 49.727 14.4801 50.4365 15.8755C51.2949 16.0365 52.1475 16.1916 53.0059 16.3466C53.3338 16.4062 53.6617 16.4659 53.9896 16.5255C54.091 16.5434 54.1863 16.5613 54.2877 16.5792C54.3294 16.5851 54.3771 16.5971 54.4188 16.5971C54.5917 16.5971 55.0806 16.2035 55.2237 16.0783C55.6827 15.6847 56.0941 15.2196 56.4339 14.7187C56.9645 13.9494 57.3341 13.1384 57.6083 12.2499C57.7395 11.8086 57.5726 11.5284 57.1016 11.4985C57.0301 11.4985 56.9645 11.4985 56.8929 11.4985C56.7558 11.5045 56.6187 11.5105 56.4875 11.5224C56.0583 11.5522 55.6291 11.582 55.1998 11.6178C53.9777 11.7132 52.7496 11.8205 51.5274 11.9279C50.669 11.9994 49.8164 12.077 48.958 12.1545L48.9639 12.1485ZM46.9072 16.8714C46.8893 17.3782 47.0383 18.881 48.9222 21.2662C49.3157 21.4988 49.7091 21.7254 50.1086 21.946C50.5974 22.2203 51.0982 22.4827 51.6049 22.7212C51.7778 22.8047 52.0223 22.8405 52.213 22.8167C52.213 22.8167 52.213 22.8167 52.219 22.8167C52.5469 22.7391 52.8807 22.6079 53.1908 22.4768C53.936 22.1488 54.6394 21.7075 55.2416 21.1589C55.796 20.6639 56.1716 20.0319 56.2312 19.2805C56.2491 19.0181 56.2312 18.6782 56.1477 18.4218C56.1358 18.386 56.112 18.3622 56.0762 18.3622C54.7527 18.1534 53.4292 17.9388 52.1057 17.7241C51.1101 17.5631 50.1205 17.4021 49.1249 17.2411C48.5108 17.1397 47.9028 17.0443 47.2887 16.937C47.1575 16.9131 47.0324 16.8893 46.9012 16.8654L46.9072 16.8714ZM43.4911 19.6621H43.4017C43.4017 19.6621 43.1275 20.0736 42.3882 20.3539C41.649 20.6341 42.3346 22.4231 42.6982 22.9896C42.9307 23.3533 44.0754 24.7785 44.8563 25.7446C45.0292 25.8698 45.2021 25.995 45.375 26.1203C45.9712 26.5496 46.5673 26.973 47.1635 27.3964C47.4556 27.6051 47.7537 27.8078 48.0399 28.0166C48.171 28.112 48.2843 28.1835 48.4453 28.2014C48.6658 28.2253 48.946 28.1656 49.1666 28.1239C49.423 28.0702 49.6913 27.9688 49.9357 27.8675C50.2934 27.7244 50.6392 27.5634 50.979 27.3964C51.5155 27.128 52.3442 26.6868 52.7317 26.2276C52.9523 25.9712 53.0656 25.6671 52.8927 25.351C52.8271 25.2258 52.7019 25.0946 52.5827 25.0171L43.4852 19.6502L43.4911 19.6621ZM42.1974 25.4285C42.1974 25.4285 41.4463 26.1262 41.4045 26.7285C41.3569 27.3308 41.2972 28.6188 42.0007 29.6743C42.7042 30.7298 42.9307 31.9046 42.9069 32.4711C42.9665 32.5188 43.0261 32.5605 43.0917 32.5963C43.1632 32.638 43.2646 32.6977 43.348 32.7155C44.2781 33.0733 45.22 33.2165 46.2037 33.0077C46.5614 32.9302 46.9072 32.811 47.247 32.6738C47.5391 32.5545 47.8193 32.4174 48.1114 32.2922C48.4333 32.155 48.952 31.9344 48.9282 31.505C48.9043 31.0101 48.1531 30.2945 47.8074 29.9606C47.5629 29.728 47.3125 29.5074 47.0562 29.2927C46.7164 29.0005 46.3646 28.7142 46.0189 28.434C45.2081 27.7721 44.3854 27.128 43.5567 26.484C43.1096 26.1322 42.6565 25.7863 42.2034 25.4345L42.1974 25.4285ZM41.3211 32.811L40.707 36.2517C40.9574 36.4246 41.2317 36.5678 41.5178 36.6512C42.4538 36.9196 43.2109 36.5141 43.8131 35.8104C43.9084 35.6971 44.0992 35.4288 43.9561 35.2976C43.9561 35.2976 43.9561 35.2976 43.9502 35.2976L41.3211 32.8229V32.811Z" fill="#B4E0D9"/>
<path d="M33.298 38.13C33.0297 37.5217 32.684 36.9731 32.3442 36.4424C32.2309 36.2635 32.1116 36.0727 31.9984 35.8878C31.7838 35.536 31.5453 35.1543 31.3128 34.7846C31.0385 34.3493 30.7583 33.9021 30.508 33.4846L30.037 32.6975L29.566 33.4846C29.3454 33.8544 29.1249 34.242 28.9102 34.6236C28.6718 35.047 28.4214 35.4823 28.1829 35.8818C28.0696 36.0667 27.9504 36.2516 27.8371 36.4364C27.4973 36.9671 27.1515 37.5158 26.8833 38.124C26.2275 39.6208 26.5494 41.0102 27.8193 42.1372C28.1889 41.7198 28.2545 41.1056 27.9623 40.6345C27.6225 40.0859 27.5689 39.4955 27.7894 38.8396H32.3978C32.6184 39.5015 32.5647 40.0859 32.2249 40.6345C31.9328 41.1056 31.9984 41.7198 32.368 42.1372C33.6378 41.0102 33.9598 39.6208 33.304 38.124L33.298 38.13ZM29.1189 36.4603C29.3693 36.0488 29.6197 35.6016 29.8641 35.1722C29.9237 35.0649 29.9893 34.9576 30.0489 34.8443C30.1622 35.0232 30.2695 35.1961 30.3828 35.375C30.6093 35.7387 30.8478 36.1144 31.0624 36.4603C31.1816 36.6511 31.3009 36.8479 31.4201 37.0327C31.5751 37.2713 31.7182 37.5098 31.8613 37.7424H28.326C28.4631 37.5098 28.6122 37.2713 28.7672 37.0327C28.8864 36.8479 29.0056 36.6571 29.1249 36.4603H29.1189Z" fill="#D8EFFC"/>
<path d="M34.6693 21.9634C34.2103 22.4822 34.1566 23.2335 34.5143 23.8239C34.9674 24.5753 34.9853 25.3862 34.5799 26.3105C34.2997 26.9546 33.9182 27.5509 33.5187 28.183C33.3756 28.4096 33.2266 28.6421 33.0835 28.8807C32.8272 29.3041 32.541 29.7573 32.2608 30.2045C32.1297 30.4192 31.9925 30.6338 31.8554 30.8485C31.7779 30.7173 31.7064 30.5861 31.6289 30.455C31.3785 30.0137 31.1281 29.5664 30.8658 29.1371C30.9135 29.0596 30.9612 28.982 31.0089 28.9105C31.4202 28.2665 31.8435 27.5986 32.1654 26.8592C32.2727 26.6147 32.3562 26.3702 32.4218 26.1316C31.5812 26.1316 30.8121 26.5968 30.4306 27.3422C30.3054 27.5867 30.1802 27.8133 30.0788 27.9683C29.9775 27.8073 29.8523 27.5807 29.7271 27.3422C29.3396 26.5968 28.5705 26.1316 27.7359 26.1316C27.8015 26.3702 27.885 26.6147 27.9923 26.8592C28.3142 27.5986 28.7375 28.2665 29.1488 28.9105C29.1965 28.982 29.2442 29.0596 29.2919 29.1371C29.0773 29.4889 28.8448 29.8527 28.6182 30.2105C28.4871 30.4251 28.35 30.6398 28.2128 30.8545C28.1353 30.7233 28.0638 30.5921 27.9863 30.4609C27.6882 29.9362 27.3842 29.3935 27.0801 28.8926C26.937 28.66 26.788 28.4215 26.6449 28.1949C26.2455 27.5628 25.8639 26.9665 25.5838 26.3225C25.1784 25.3982 25.1962 24.5872 25.6493 23.8358C26.007 23.2455 25.9534 22.4941 25.4943 21.9753C23.9503 23.3468 23.5568 25.0404 24.3556 26.8592C24.6776 27.5986 25.1009 28.2665 25.5122 28.9105C25.6553 29.1311 25.7984 29.3577 25.9355 29.5843C26.2336 30.0733 26.5317 30.604 26.8238 31.1169C27.0861 31.576 27.3544 32.0531 27.6226 32.5003L28.195 33.4604L28.7673 32.5003C29.0654 31.9994 29.4111 31.4508 29.745 30.9201C29.8463 30.7531 29.9536 30.5861 30.061 30.4192C30.1921 30.6517 30.3233 30.8843 30.4544 31.1109C30.7167 31.5701 30.985 32.0471 31.2533 32.4944L31.8256 33.4544L32.3979 32.4944C32.696 31.9935 33.0418 31.4448 33.3756 30.9141C33.6558 30.4669 33.948 30.0077 34.2103 29.5724C34.3474 29.3458 34.4905 29.1192 34.6336 28.8986C35.0449 28.2545 35.4682 27.5867 35.7901 26.8472C36.589 25.0285 36.1955 23.3409 34.6514 21.9634H34.6693Z" fill="#D8EFFC"/>
</svg>
