<svg width="202" height="69" viewBox="0 0 202 69" fill="none" xmlns="http://www.w3.org/2000/svg">
<path fill-rule="evenodd" clip-rule="evenodd" d="M30.0108 0.0534668L30.9885 0.399332L31.0541 0.423184C38.4942 3.47037 54.078 10.656 59.0321 16.6669L59.9622 17.7939L59.5448 19.1953C59.0918 20.7159 58.5373 22.2544 57.9769 23.7392C56.5521 27.5497 54.9365 31.3065 53.1718 34.9739C47.6692 46.4411 40.5987 57.4133 32.0377 66.8352C31.3998 67.5329 30.7262 68.2365 30.0108 68.9163C29.2954 68.2365 28.6217 67.5388 27.9838 66.8352C19.4229 57.4133 12.3523 46.4411 6.84972 34.9739C5.09103 31.3065 3.46946 27.5497 2.04462 23.7392C1.49019 22.2544 0.935751 20.7159 0.476704 19.1953L0.0593872 17.7939L0.989406 16.6669C5.94951 10.662 21.5333 3.47633 28.9734 0.423184L29.039 0.399332L30.0167 0.0534668H30.0108Z" fill="#4B66EA"/>
<path d="M30.011 68.9881L29.9752 68.9523C29.3016 68.3142 28.6219 67.6165 27.9423 66.8711C23.7751 62.2855 19.8285 57.181 16.2217 51.7008C12.7758 46.4711 9.6102 40.8478 6.7963 34.9979C4.97799 31.2053 3.35642 27.4247 1.9912 23.7573C1.44868 22.3023 0.882326 20.7459 0.423278 19.2074L0 17.7822L0.947904 16.6313C3.12391 13.9896 7.52362 10.8768 14.0218 7.38242C20.3531 3.98937 26.5711 1.35364 28.9558 0.375681L29.0214 0.351828L30.017 0L31.0126 0.351828L31.0781 0.381644C33.4568 1.35961 39.6749 3.99533 46.0002 7.39435C52.4984 10.8888 56.8981 14.0016 59.0741 16.6432L60.022 17.7941L59.5987 19.2193C59.1397 20.7519 58.5733 22.3142 58.0308 23.7693C56.6656 27.4306 55.05 31.2113 53.2257 35.0098C50.4178 40.8597 47.2462 46.483 43.8003 51.7127C40.1935 57.1929 36.2529 62.2974 32.0797 66.8831C31.406 67.6285 30.7204 68.3262 30.0468 68.9642L30.011 69V68.9881ZM0.125195 17.812L0.53655 19.1836C0.995598 20.7161 1.55599 22.2725 2.09851 23.7215C3.46373 27.3829 5.07934 31.1576 6.89764 34.9502C12.7043 47.0436 19.8106 57.7594 28.0198 66.7996C28.6816 67.5271 29.3493 68.2129 30.005 68.839C30.6608 68.2129 31.3285 67.5271 31.9903 66.7996C40.2054 57.7594 47.3118 47.0495 53.1124 34.9502C54.9308 31.1576 56.5464 27.377 57.9116 23.7215C58.4541 22.2665 59.0205 20.7101 59.4735 19.1836L59.8849 17.812L58.9728 16.7088C56.8027 14.0791 52.4149 10.9782 45.9286 7.48976C39.6272 4.08478 33.4092 1.44905 31.0305 0.477055L30.9649 0.453202L30.011 0.119264L29.0512 0.459165L28.9916 0.483018C26.6129 1.45502 20.3948 4.09074 14.0755 7.48976C7.59516 10.9723 3.20737 14.0731 1.03733 16.7029L0.125195 17.8061V17.812Z" fill="#4B66EA"/>
<path fill-rule="evenodd" clip-rule="evenodd" d="M30.0111 2.96387C30.0111 2.96387 51.4015 11.7297 56.916 18.4145C56.916 18.4145 49.3805 43.6865 30.0111 64.9929C10.6476 43.6865 3.10608 18.4145 3.10608 18.4145C8.62658 11.7297 30.0111 2.96387 30.0111 2.96387Z" fill="#D8EFFC"/>
<path fill-rule="evenodd" clip-rule="evenodd" d="M30.0101 60.4606C37.2058 52.0346 43.2211 42.4518 47.9964 32.4933C49.6836 28.981 51.2336 25.3852 52.5988 21.7357C52.9088 20.9008 53.2248 20.0481 53.5169 19.1894C48.5926 14.6156 36.2818 8.85521 30.0101 6.20755C23.7384 8.85521 11.4276 14.6156 6.50325 19.1894C6.79538 20.0481 7.11134 20.9008 7.42135 21.7357C8.78657 25.3852 10.3366 28.981 12.0238 32.4933C16.799 42.4518 22.8144 52.0346 30.0101 60.4606ZM30.0101 61.9097C37.5814 53.2273 43.8769 43.2687 48.8549 32.9047C50.554 29.3686 52.1159 25.7429 53.4871 22.0696C53.8687 21.038 54.2562 19.9825 54.6079 18.927C49.7491 14.0611 36.4845 7.88917 30.0161 5.18188C23.5476 7.88917 10.277 14.0611 5.42419 18.927C5.76997 19.9825 6.15748 21.038 6.54499 22.0696C7.91617 25.7489 9.48409 29.3686 11.1772 32.9047C16.1492 43.2687 22.4507 53.2273 30.022 61.9097H30.0101Z" fill="#4B66EA"/>
<path d="M30.011 61.9874L29.9693 61.9397C22.696 53.5972 16.3528 43.8295 11.1185 32.9228C9.35979 29.2555 7.79784 25.612 6.48031 22.0817C6.10473 21.0799 5.71126 20.0066 5.35952 18.9392L5.3476 18.9093L5.37144 18.8855C11.1423 13.1072 28.0734 5.93345 29.9812 5.12842H29.9991H30.017C31.9306 5.92748 48.8618 13.1072 54.6267 18.8855L54.6505 18.9093L54.6386 18.9392C54.2869 20.0066 53.8934 21.0799 53.5178 22.0817C52.2003 25.612 50.6443 29.2555 48.8797 32.9228C43.6453 43.8295 37.3021 53.5972 30.0289 61.9397L29.9871 61.9874H30.011ZM5.47875 18.9392C5.82453 19.9946 6.218 21.0561 6.58762 22.046C7.90515 25.5702 9.46114 29.2137 11.2198 32.8811C16.4422 43.7639 22.7616 53.5018 30.011 61.8264C37.2604 53.5018 43.5857 43.7579 48.8021 32.8811C50.5608 29.2197 52.1168 25.5702 53.4344 22.046C53.804 21.0561 54.1915 19.9946 54.5432 18.9392C48.7843 13.2026 32.0141 6.07656 30.011 5.24172C28.0079 6.08253 11.2318 13.2026 5.47875 18.9392ZM30.011 60.5383L29.9693 60.4906C23.0478 52.3926 16.9967 42.9767 11.971 32.5173C10.2242 28.8798 8.6742 25.2542 7.3686 21.7538C7.07052 20.9487 6.74859 20.0841 6.4505 19.2075L6.43858 19.1717L6.46243 19.1479C10.9277 15.0035 21.921 9.55906 29.9871 6.16005H30.005H30.0229C38.0831 9.56503 49.0823 15.0094 53.5476 19.1479L53.5715 19.1717L53.5596 19.2075C53.2615 20.0841 52.9395 20.9487 52.6415 21.7538C51.3359 25.2542 49.7858 28.8738 48.0391 32.5173C43.0193 42.9827 36.9623 52.3926 30.0408 60.4906L29.9991 60.5383H30.011ZM6.56974 19.2075C6.86782 20.0722 7.17783 20.9249 7.47591 21.718C8.78151 25.2184 10.3315 28.8321 12.0723 32.4696C17.0801 42.9052 23.1133 52.2912 30.011 60.3773C36.9086 52.2972 42.9418 42.9052 47.9496 32.4696C49.6964 28.8321 51.2405 25.2124 52.5461 21.718C52.8442 20.9249 53.1542 20.0722 53.4522 19.2075C48.987 15.081 38.0413 9.6664 30.005 6.26739C21.9687 9.66044 11.0231 15.081 6.55781 19.2075H6.56974Z" fill="white"/>
<path fill-rule="evenodd" clip-rule="evenodd" d="M30.0113 13.0291C21.2953 13.0291 13.3246 19.523 13.3246 28.5333C13.3246 37.5437 21.2953 44.0376 30.0113 44.0376C38.7272 44.0376 46.698 37.5437 46.698 28.5333C46.698 19.523 38.7272 13.0291 30.0113 13.0291ZM30.0113 14.8657C21.808 14.8657 15.1608 20.9839 15.1608 28.5333C15.1608 36.0827 21.808 42.2009 30.0113 42.2009C38.2145 42.2009 44.8618 36.0827 44.8618 28.5333C44.8618 20.9839 38.2145 14.8657 30.0113 14.8657Z" fill="#4B66EA"/>
<path fill-rule="evenodd" clip-rule="evenodd" d="M38.3467 13.9791C38.5792 14.0507 38.8177 14.164 39.0323 14.2773C39.5748 14.5635 40.0815 14.9333 40.5227 15.3566C40.6777 15.2374 40.8327 15.0227 40.94 14.8557C41.2441 14.3668 41.3931 13.7943 41.4408 13.2218C41.4766 12.7388 41.5123 12.2558 41.5362 11.7668C41.5362 11.6893 41.5421 11.6058 41.5421 11.5283C41.5421 11.4806 41.5779 11.4388 41.6256 11.4388L57.7936 10.0494C58.044 10.0136 58.3481 10.115 58.5448 10.2641C59.1529 10.7352 59.1589 11.7728 59.0933 12.4645C58.98 13.6154 58.4971 14.6828 57.7936 15.5892C57.4777 15.9947 57.0842 16.43 56.6728 16.7401C56.9173 16.8117 57.2034 17.0204 57.3763 17.2112C57.8652 17.7479 57.9367 18.4754 57.8234 19.1671C57.6684 20.0974 57.3942 20.9143 56.7802 21.6418C56.0469 22.5065 54.944 23.1147 53.9305 23.5858C54.0676 23.7588 54.1868 23.9734 54.2822 24.1762C54.4968 24.6234 54.622 25.1243 54.6101 25.6252C54.5922 26.2573 54.2345 26.8835 53.8291 27.3546C53.382 27.8793 52.7739 28.3385 52.1301 28.6009C51.6054 28.8155 51.0748 29.0064 50.5383 29.1793C50.3177 29.2509 50.0971 29.3224 49.8765 29.382C49.8527 29.388 49.8348 29.4119 49.8348 29.4357C49.8229 29.5132 49.9302 29.6146 49.9779 29.6623C50.2044 29.871 50.425 30.2348 50.5442 30.5151C50.741 30.9563 50.8244 31.4572 50.6516 31.9164C50.2581 32.948 48.72 33.6934 47.7363 34.0274C46.9553 34.2957 46.0969 34.5819 45.2622 34.5819C45.4291 34.6774 45.602 34.8384 45.7272 34.9874C45.9657 35.2856 46.0432 35.6255 45.8345 35.9654C45.5365 36.4484 44.7555 36.9314 44.2607 37.1998C43.5572 37.5814 42.7464 37.9154 41.9595 38.0764C41.2143 38.2255 40.4094 37.82 39.8073 37.4085C39.5152 37.2057 39.235 36.9791 38.9667 36.7406C38.7998 36.5915 38.6448 36.4365 38.4838 36.2874C38.3407 36.1562 38.144 35.9714 38.0426 35.8044L36.6357 38.3686L35.4732 41.7497L37.3094 44.0753L37.3272 44.0873C37.3272 44.0873 37.3332 44.0932 37.3392 44.0992L40.5465 48.2436C40.5465 48.2436 40.5465 48.2436 40.5525 48.2496C40.7969 48.661 40.9817 49.2573 41.0473 49.7284C41.2083 50.8614 40.8685 51.8752 40.0696 52.6921C39.2529 53.521 38.2155 53.9504 37.053 53.9802C36.5701 53.9921 35.9561 53.9325 35.497 53.7715C35.4434 53.9802 35.3539 54.1949 35.2645 54.3916C35.0499 54.8687 34.7637 55.3219 34.4239 55.7155C33.9589 56.2581 33.3926 56.6934 32.7427 56.9976C31.8843 57.3971 30.9423 57.5283 30.0004 57.4865C30.0004 57.4865 29.9884 57.4865 29.9825 57.4865L29.9348 57.4746L29.8871 57.4865C29.8871 57.4865 29.8752 57.4865 29.8692 57.4865C28.9273 57.5283 27.9853 57.3971 27.1268 56.9976C26.477 56.6934 25.9107 56.2581 25.4457 55.7155C25.1058 55.3159 24.8197 54.8687 24.6051 54.3916C24.5156 54.1949 24.4262 53.9802 24.3726 53.7715C23.9135 53.9325 23.3054 53.9921 22.8166 53.9802C21.654 53.9504 20.6227 53.521 19.8 52.6921C18.9951 51.8811 18.6553 50.8614 18.8222 49.7284C18.8878 49.2573 19.0726 48.661 19.3171 48.2496C19.3171 48.2496 19.3171 48.2496 19.323 48.2436L22.5304 44.0992C22.5304 44.0992 22.5364 44.0932 22.5423 44.0873L22.5602 44.0753L24.3964 41.7497L23.2339 38.3686L21.8269 35.8044C21.7315 35.9714 21.5288 36.1562 21.3858 36.2874C21.2248 36.4365 21.0698 36.5915 20.9029 36.7406C20.6346 36.9791 20.3604 37.2057 20.0623 37.4085C19.4601 37.82 18.6613 38.2255 17.9101 38.0764C17.1232 37.9154 16.3124 37.5814 15.6089 37.1998C15.1141 36.9314 14.3331 36.4484 14.035 35.9654C13.8264 35.6255 13.8979 35.2856 14.1423 34.9874C14.2616 34.8384 14.4404 34.6833 14.6074 34.5819C13.7727 34.5819 12.9142 34.2957 12.1333 34.0274C11.1496 33.6934 9.60552 32.9421 9.21801 31.9164C9.04513 31.4572 9.12859 30.9504 9.32532 30.5151C9.45052 30.2348 9.6711 29.871 9.89168 29.6623C9.93937 29.6146 10.0467 29.5132 10.0348 29.4357C10.0348 29.4119 10.0109 29.388 9.99303 29.382C9.77245 29.3224 9.55187 29.2509 9.33128 29.1793C8.79473 29.0064 8.26415 28.8096 7.73952 28.6009C7.09566 28.3385 6.49353 27.8793 6.04045 27.3546C5.64102 26.8835 5.27736 26.2573 5.25947 25.6252C5.24755 25.1243 5.37274 24.6294 5.58736 24.1762C5.68275 23.9734 5.80198 23.7588 5.9391 23.5858C4.92562 23.1088 3.82271 22.5065 3.08943 21.6418C2.47537 20.9143 2.20114 20.0974 2.04613 19.1671C1.93286 18.4754 2.0044 17.7479 2.49326 17.2112C2.66615 17.0204 2.94635 16.8117 3.19673 16.7401C2.78538 16.43 2.39191 15.9947 2.07594 15.5892C1.37247 14.6768 0.889572 13.6154 0.7763 12.4645C0.710722 11.7668 0.716684 10.7352 1.32477 10.2641C1.52151 10.115 1.82555 10.0136 2.07594 10.0494L18.244 11.4388C18.2917 11.4388 18.3274 11.4806 18.3274 11.5283C18.3274 11.6058 18.3274 11.6893 18.3334 11.7668C18.3513 12.2498 18.393 12.7388 18.4288 13.2218C18.4705 13.7943 18.6255 14.3668 18.9296 14.8557C19.0309 15.0227 19.1919 15.2374 19.3469 15.3566C19.788 14.9273 20.2948 14.5635 20.8373 14.2773C21.0519 14.164 21.2904 14.0507 21.5229 13.9791C22.6019 11.731 24.3308 10.0434 26.7036 9.2086C27.419 8.95814 28.1701 8.79117 28.9273 8.72558C29.2313 8.69576 29.5532 8.67787 29.8632 8.70173H29.9169H29.9706C30.2806 8.67787 30.5965 8.70173 30.9065 8.72558C31.6637 8.79117 32.4148 8.95814 33.1302 9.2086C35.503 10.0434 37.2259 11.731 38.3109 13.9791H38.3467Z" fill="#4B66EA"/>
<path d="M30.3524 57.5518C30.2391 57.5518 30.1318 57.5518 30.0126 57.5458C30.0007 57.5458 29.9947 57.5458 29.9888 57.5458H29.953H29.9172C29.9053 57.5458 29.8993 57.5458 29.8934 57.5458C28.868 57.5935 27.9379 57.4266 27.1272 57.0509C26.4773 56.7468 25.905 56.3114 25.4281 55.7569C25.0883 55.3573 24.8021 54.9101 24.5815 54.4152C24.51 54.2542 24.4206 54.0514 24.3609 53.8427C23.9496 53.9798 23.3832 54.0514 22.8407 54.0395C21.6603 54.0097 20.6051 53.5624 19.7883 52.7395C18.9716 51.9106 18.6258 50.873 18.7928 49.7341C18.8703 49.2033 19.067 48.6189 19.2995 48.2373C19.2995 48.2373 19.3055 48.2254 19.3114 48.2254L22.5188 44.081C22.5188 44.081 22.5307 44.069 22.5367 44.0631L22.5486 44.0511L24.3609 41.7553L23.2103 38.404L21.8451 35.9174C21.7319 36.0724 21.5649 36.2274 21.4457 36.3348C21.3801 36.3944 21.3205 36.454 21.2549 36.5137C21.1595 36.6031 21.0641 36.6985 20.9628 36.788C20.6707 37.0504 20.3905 37.271 20.1162 37.4618C19.2816 38.0343 18.5483 38.2609 17.9283 38.1357C17.0221 37.9508 16.1696 37.5572 15.6152 37.2591C15.1561 37.0086 14.3334 36.5137 14.0234 36.0068C13.8207 35.6729 13.8565 35.3091 14.1307 34.9692C14.2202 34.8559 14.3394 34.7426 14.4646 34.6472C13.6657 34.6114 12.8609 34.3371 12.1455 34.0926C10.9591 33.6871 9.55814 32.9119 9.19448 31.9459C8.99178 31.4092 9.14082 30.8665 9.30179 30.5028C9.41506 30.2404 9.63564 29.8588 9.88603 29.6322C10.0172 29.5129 10.0172 29.4652 10.0112 29.4533C10.0112 29.4533 10.0112 29.4473 10.0053 29.4473C9.77276 29.3817 9.54025 29.3102 9.34352 29.2446C8.80697 29.0716 8.27042 28.8748 7.74579 28.6602C7.12578 28.4097 6.49981 27.9505 6.02883 27.4019C5.74267 27.068 5.25382 26.3882 5.23593 25.6428C5.22401 25.1657 5.33728 24.6529 5.56979 24.1699C5.67113 23.9552 5.77844 23.7704 5.89172 23.6213C4.97362 23.186 3.8409 22.5777 3.08377 21.6892C2.52934 21.0392 2.20741 20.264 2.02856 19.1906C1.89144 18.3617 2.05241 17.67 2.48761 17.193C2.63665 17.032 2.88108 16.8411 3.11954 16.7398C2.6903 16.3999 2.31472 15.9586 2.06433 15.6366C1.31316 14.6646 0.860073 13.5733 0.752763 12.482C0.645454 11.3669 0.836227 10.6096 1.31912 10.2339C1.5397 10.061 1.86163 9.97154 2.11202 10.0073L18.2741 11.3967C18.3516 11.4027 18.4052 11.4623 18.4052 11.5399C18.4052 11.5995 18.4052 11.6591 18.4052 11.7128V11.7724C18.4291 12.2376 18.4589 12.6848 18.5006 13.2274C18.5483 13.8416 18.7153 14.3962 18.9895 14.8375C19.0491 14.9329 19.1922 15.1535 19.3591 15.2967C19.8003 14.8733 20.2951 14.5215 20.8257 14.2412C21.0105 14.1458 21.2549 14.0205 21.4993 13.943C22.6261 11.6174 24.4206 9.96558 26.6979 9.16651C27.4252 8.9101 28.1764 8.74909 28.9395 8.67753C29.2257 8.65368 29.5595 8.62983 29.8814 8.65368C29.8814 8.65368 29.8874 8.65368 29.8934 8.65368H29.9351H29.9828C29.9828 8.65368 29.9828 8.65368 29.9947 8.65368C30.3226 8.62983 30.6565 8.65368 30.9367 8.67753C31.6938 8.74313 32.4509 8.9101 33.1782 9.16651C35.4556 9.96558 37.2501 11.6174 38.3768 13.943C38.6212 14.0205 38.8657 14.1398 39.0505 14.2412C39.5811 14.5215 40.0759 14.8733 40.517 15.2967C40.678 15.1535 40.8271 14.9329 40.8867 14.8375C41.1609 14.3962 41.3278 13.8416 41.3755 13.2274C41.4173 12.6908 41.453 12.2435 41.4709 11.7724V11.7128C41.4709 11.6532 41.4769 11.5995 41.4769 11.5399C41.4769 11.4623 41.5365 11.4027 41.608 11.3967L57.7761 10.0073C58.0205 9.97154 58.3424 10.061 58.563 10.2339C59.0459 10.6096 59.2367 11.3669 59.1294 12.482C59.022 13.5733 58.569 14.6646 57.8178 15.6366C57.5734 15.9526 57.1918 16.3999 56.7626 16.7398C57.001 16.8352 57.2455 17.032 57.3945 17.193C57.8357 17.67 57.9907 18.3617 57.8536 19.1906C57.6747 20.264 57.3528 21.0392 56.7984 21.6892C56.0472 22.5777 54.9145 23.186 53.9904 23.6213C54.0977 23.7644 54.205 23.9492 54.3123 24.1699C54.5448 24.6529 54.6581 25.1598 54.6462 25.6428C54.6283 26.3882 54.1394 27.068 53.8533 27.4019C53.3823 27.9505 52.7563 28.4097 52.1363 28.6602C51.6177 28.8689 51.0811 29.0657 50.5386 29.2446C50.3419 29.3102 50.1094 29.3817 49.8769 29.4473C49.8769 29.4473 49.8769 29.4473 49.8769 29.4533C49.8769 29.4592 49.8769 29.5129 50.0021 29.6322C50.2465 29.8588 50.4671 30.2464 50.5863 30.5028C50.7473 30.8665 50.8963 31.4152 50.6936 31.9459C50.3299 32.9059 48.929 33.6812 47.7426 34.0926C47.0272 34.3371 46.2224 34.6114 45.4235 34.6472C45.5487 34.7426 45.6679 34.8559 45.7574 34.9692C46.0316 35.3151 46.0733 35.6729 45.8647 36.0068C45.5547 36.5137 44.7319 37.0086 44.2729 37.2591C43.7185 37.5572 42.8659 37.9568 41.9598 38.1357C41.3398 38.2609 40.6005 38.0343 39.7718 37.4618C39.4976 37.271 39.2174 37.0504 38.9253 36.788C38.8239 36.6985 38.7285 36.6031 38.6332 36.5137C38.5676 36.454 38.508 36.3944 38.4424 36.3348C38.3232 36.2274 38.1562 36.0664 38.043 35.9174L36.6777 38.404L35.5271 41.7553L37.3395 44.0511L37.3514 44.0631C37.3514 44.0631 37.3633 44.075 37.3693 44.081L40.5767 48.2254C40.5767 48.2254 40.5826 48.2313 40.5886 48.2373C40.8211 48.6189 41.0178 49.2093 41.0953 49.7341C41.2623 50.873 40.9165 51.9166 40.0997 52.7395C39.2889 53.5624 38.2337 54.0156 37.0474 54.0395C36.5049 54.0514 35.9445 53.9798 35.5271 53.8427C35.4675 54.0514 35.3781 54.2601 35.3066 54.4152C35.086 54.9041 34.7998 55.3573 34.46 55.7569C33.9831 56.3174 33.4107 56.7527 32.7609 57.0509C32.0455 57.3848 31.2288 57.5518 30.3345 57.5518H30.3524ZM29.953 57.4206L30.0126 57.4325C30.0126 57.4325 30.0126 57.4325 30.0186 57.4325C31.0261 57.4802 31.9442 57.3133 32.7311 56.9495C33.3631 56.6573 33.9235 56.228 34.3885 55.6794C34.7223 55.2858 35.0025 54.8445 35.2171 54.3674C35.2946 54.2005 35.39 53.9739 35.4437 53.7532L35.4556 53.6996L35.5093 53.7175C35.9862 53.8844 36.6181 53.9381 37.0474 53.9262C38.2039 53.8964 39.2293 53.461 40.0222 52.656C40.8151 51.857 41.149 50.8432 40.988 49.74C40.9165 49.2272 40.7197 48.6547 40.4992 48.279L37.2918 44.1287L37.2679 44.1108L35.4139 41.7613L36.5883 38.3444L38.043 35.6967L38.0907 35.7802C38.186 35.9412 38.3887 36.132 38.5199 36.2513C38.5855 36.3109 38.651 36.3706 38.7107 36.4302C38.8061 36.5196 38.9014 36.6151 39.0028 36.6985C39.2949 36.9609 39.5632 37.1756 39.8374 37.3604C40.6482 37.915 41.3576 38.1357 41.9478 38.0164C42.8421 37.8375 43.6827 37.4439 44.2371 37.1458C44.6902 36.9013 45.495 36.4183 45.7931 35.9352C45.9779 35.6371 45.9422 35.327 45.6918 35.0169C45.5725 34.8678 45.3997 34.7188 45.2446 34.6233L45.0777 34.522H45.2745C46.1151 34.522 46.9735 34.2298 47.7307 33.9674C48.8932 33.5679 50.2644 32.8105 50.6161 31.8862C50.8069 31.3853 50.6638 30.8665 50.5088 30.5207C50.3955 30.2702 50.1869 29.9005 49.9544 29.6858C49.8351 29.5785 49.7815 29.489 49.7934 29.4115C49.7994 29.3698 49.8351 29.328 49.8769 29.3161C50.1094 29.2505 50.3359 29.179 50.5386 29.1134C51.0752 28.9404 51.6057 28.7436 52.1244 28.5349C52.7325 28.2904 53.3406 27.8372 53.7996 27.3006C54.0798 26.9726 54.5508 26.3226 54.5687 25.607C54.5806 25.1478 54.4673 24.6529 54.2468 24.1818C54.1335 23.9433 54.0143 23.7465 53.901 23.6034L53.8592 23.5497L53.9189 23.5199C54.837 23.0905 55.9935 22.4823 56.7507 21.5878C57.2872 20.9498 57.6091 20.1984 57.782 19.1429C57.8714 18.5883 57.8714 17.8072 57.3468 17.2347C57.1918 17.0677 56.9176 16.8531 56.6672 16.7815L56.5658 16.7517L56.6493 16.6861C57.1024 16.3462 57.5018 15.8751 57.7582 15.5412C58.4974 14.587 58.9445 13.5137 59.0459 12.4403C59.1472 11.3789 58.9684 10.6335 58.5213 10.2876C58.3245 10.1325 58.0324 10.0491 57.8118 10.0789L41.6378 11.4683C41.6378 11.4683 41.6021 11.4862 41.6021 11.5041C41.6021 11.5637 41.6021 11.6233 41.6021 11.683V11.7426C41.5782 12.2137 41.5484 12.6609 41.5067 13.1976C41.459 13.8297 41.2861 14.4022 40.9999 14.8554C40.9344 14.9627 40.7615 15.2251 40.5707 15.3682L40.5349 15.398L40.4992 15.3682C40.058 14.9389 39.5572 14.5811 39.0207 14.2949C38.8299 14.1935 38.5855 14.0742 38.341 13.9967H38.3172L38.3053 13.9669C37.1964 11.6591 35.4139 10.0192 33.1544 9.22614C32.439 8.97569 31.6938 8.80872 30.9426 8.74313C30.6624 8.71927 30.3345 8.69542 30.0186 8.71927H29.9589H29.8993C29.5774 8.69542 29.2495 8.71927 28.9693 8.74313C28.2181 8.80872 27.4729 8.97569 26.7575 9.22614C24.4981 10.0192 22.7215 11.6591 21.6067 13.9669L21.5947 13.9907H21.5709C21.3265 14.0742 21.082 14.1935 20.8913 14.2949C20.3547 14.5751 19.8599 14.9389 19.4128 15.3682L19.377 15.398L19.3412 15.3682C19.1505 15.2191 18.9776 14.9568 18.912 14.8554C18.6318 14.4022 18.4529 13.8238 18.4052 13.1976C18.3635 12.6609 18.3277 12.2077 18.3099 11.7426V11.683C18.3099 11.6233 18.3039 11.5637 18.3039 11.5041C18.3039 11.4862 18.286 11.4683 18.2681 11.4683L2.1001 10.0789C1.87952 10.0491 1.5874 10.1325 1.39066 10.2876C0.943537 10.6335 0.758725 11.3789 0.866035 12.4403C0.967383 13.5137 1.41451 14.587 2.15375 15.5412C2.41011 15.8751 2.8155 16.3402 3.26262 16.6861L3.34609 16.7517L3.24474 16.7815C2.99435 16.8531 2.72011 17.0677 2.56511 17.2347C2.04048 17.8072 2.04048 18.5883 2.12991 19.1429C2.3028 20.1984 2.62473 20.9557 3.16127 21.5878C3.91841 22.4823 5.06901 23.0905 5.99306 23.5199L6.05268 23.5497L6.01095 23.6034C5.89172 23.7525 5.77844 23.9433 5.66517 24.1818C5.44459 24.6529 5.33132 25.1419 5.34324 25.607C5.36113 26.3226 5.8321 26.9726 6.1123 27.3006C6.57135 27.8372 7.1854 28.2845 7.78752 28.5349C8.30619 28.7436 8.83678 28.9404 9.37333 29.1134C9.57006 29.179 9.80257 29.2505 10.0291 29.3161C10.0708 29.328 10.1066 29.3698 10.1126 29.4115C10.1245 29.4831 10.0708 29.5725 9.95161 29.6858C9.7191 29.9005 9.50448 30.2702 9.39717 30.5207C9.24217 30.8665 9.09909 31.3853 9.28986 31.8862C9.6416 32.8105 11.0128 33.5679 12.1753 33.9674C12.9324 34.2238 13.7909 34.522 14.6315 34.522H14.8282L14.6613 34.6233C14.5063 34.7188 14.3334 34.8678 14.2142 35.0169C13.9638 35.327 13.928 35.6371 14.1128 35.9352C14.4109 36.4242 15.2158 36.9013 15.6688 37.1458C16.2173 37.4439 17.0579 37.8315 17.9581 38.0164C18.5483 38.1357 19.2578 37.915 20.0686 37.3604C20.3428 37.1756 20.6111 36.955 20.9032 36.6985C21.0045 36.6091 21.0999 36.5196 21.1953 36.4302C21.2609 36.3706 21.3205 36.3109 21.3861 36.2513C21.5172 36.1261 21.7199 35.9412 21.8153 35.7802L21.863 35.6967L23.3177 38.3563L24.4861 41.7672L22.6261 44.1227L22.6082 44.1346L19.4008 48.279C19.1743 48.6547 18.9835 49.2272 18.906 49.74C18.7451 50.8492 19.0789 51.857 19.8718 52.656C20.6647 53.461 21.6961 53.8964 22.8467 53.9262C23.2759 53.9381 23.9019 53.8844 24.3848 53.7175L24.4384 53.6996L24.4504 53.7532C24.51 53.9739 24.6054 54.2005 24.6769 54.3674C24.8915 54.8445 25.1717 55.2917 25.5056 55.6794C25.9706 56.228 26.531 56.6513 27.1629 56.9495C27.9558 57.3192 28.868 57.4802 29.8755 57.4325C29.8755 57.4325 29.8755 57.4325 29.8814 57.4325L29.9411 57.4206H29.953Z" fill="white"/>
<path fill-rule="evenodd" clip-rule="evenodd" d="M13.5104 12.3802C11.7994 12.2251 10.0884 12.0701 8.37742 11.921C7.15527 11.8137 5.92717 11.7123 4.70503 11.6109C4.27579 11.5751 3.84655 11.5453 3.41731 11.5155C3.28019 11.5096 3.14904 11.4976 3.01192 11.4917C2.94038 11.4917 2.8748 11.4857 2.80326 11.4917C2.33825 11.5274 2.16536 11.8077 2.29652 12.243C2.5648 13.1375 2.94038 13.9425 3.47097 14.7118C3.81078 15.2127 4.2281 15.6719 4.68119 16.0714C4.82427 16.1966 5.31312 16.5902 5.48601 16.5902C5.5337 16.5902 5.57543 16.5783 5.61717 16.5723C5.71851 16.5544 5.8139 16.5365 5.91525 16.5186C6.24314 16.459 6.57103 16.3994 6.89892 16.3397C7.85875 16.1668 8.81858 15.9879 9.77841 15.809C11.1317 15.5586 12.485 15.3081 13.8323 15.0576C13.88 15.0517 13.9098 15.004 13.9039 14.9563L13.5879 12.4517C13.5879 12.41 13.5462 12.3742 13.5044 12.3742L13.5104 12.3802Z" fill="#D8EFFC"/>
<path fill-rule="evenodd" clip-rule="evenodd" d="M29.4344 23.6272C29.4105 23.502 29.3807 23.3768 29.3569 23.2515C29.2555 22.7745 29.1482 22.3034 29.029 21.8323C28.6892 20.4965 28.2719 19.1548 27.6936 17.9026C27.3418 17.1333 26.7874 15.9764 26.1376 15.4398C25.6666 15.0581 25.2016 15.0402 24.6352 15.1833C24.051 15.3324 23.5741 15.7439 23.3296 16.2985C23.0316 16.9783 23.1389 17.7296 23.4548 18.3796C24.2418 20.0016 27.6995 22.8222 29.2913 23.7345C29.3271 23.7524 29.3688 23.7524 29.3986 23.7345C29.4284 23.7107 29.4463 23.6749 29.4403 23.6332L29.4344 23.6272Z" fill="#D8EFFC"/>
<path fill-rule="evenodd" clip-rule="evenodd" d="M30.6204 23.7341C32.2121 22.8217 35.6699 20.0011 36.4568 18.3792C36.7728 17.7292 36.8801 16.9778 36.582 16.298C36.3376 15.7494 35.8607 15.332 35.2764 15.1829C34.7101 15.0398 34.2451 15.0517 33.7741 15.4393C33.1183 15.976 32.5698 17.1388 32.2181 17.9021C31.6398 19.1603 31.2225 20.4961 30.8827 21.8318C30.7635 22.3029 30.6561 22.774 30.5548 23.2511C30.5309 23.3763 30.5011 23.5015 30.4773 23.6268C30.4713 23.6685 30.4833 23.7043 30.519 23.7281C30.5488 23.752 30.5906 23.752 30.6263 23.7281L30.6204 23.7341Z" fill="#D8EFFC"/>
<path fill-rule="evenodd" clip-rule="evenodd" d="M29.9521 11.1162C29.4931 11.0924 29.0162 11.1222 28.5631 11.1759C27.5496 11.2892 26.5361 11.5336 25.5942 11.9272C25.5584 11.9391 25.5405 11.969 25.5345 12.0047C25.5345 12.0405 25.5405 12.0703 25.5703 12.0942C25.9757 12.446 26.3573 12.8277 26.7209 13.2153C27.3827 13.9249 28.1338 14.8432 28.4796 15.7556C28.8075 16.6262 29.0937 17.5088 29.3321 18.4032C29.5467 19.2202 29.7196 20.0431 29.8627 20.872C29.8687 20.9197 29.9104 20.9555 29.9641 20.9555C30.0177 20.9555 30.0535 20.9197 30.0654 20.872C30.2085 20.0431 30.3814 19.2202 30.596 18.4032C30.8285 17.5028 31.1206 16.6202 31.4485 15.7556C31.7943 14.8432 32.5455 13.9249 33.2072 13.2153C33.5709 12.8277 33.9524 12.446 34.3578 12.0942C34.3876 12.0703 34.3995 12.0346 34.3936 12.0047C34.3936 11.969 34.3638 11.9391 34.334 11.9272C33.3861 11.5396 32.3785 11.2892 31.365 11.1759C30.912 11.1281 30.435 11.0924 29.976 11.1162H29.9521Z" fill="#D8EFFC"/>
<path fill-rule="evenodd" clip-rule="evenodd" d="M33.4339 42.2678C33.2789 43.693 33.2193 45.1421 33.2729 46.5792C33.2968 47.2232 33.3385 47.8732 33.4339 48.5173C33.4995 48.9705 33.5889 49.4654 33.7737 49.8828C34.0479 50.5209 34.507 51.0814 35.127 51.4154C35.6099 51.6777 36.206 51.791 36.7366 51.6121C37.2911 51.4273 37.6249 50.9741 37.7442 50.4135C37.929 49.5548 37.6249 48.5411 37.2851 47.754C36.9989 47.098 36.6412 46.4778 36.2597 45.8696C35.8603 45.2375 35.437 44.6233 35.0018 44.021C34.5547 43.4068 34.1016 42.8045 33.6187 42.2201C33.5948 42.1903 33.5531 42.1784 33.5114 42.1844C33.4696 42.1963 33.4458 42.2261 33.4398 42.2678H33.4339Z" fill="#D8EFFC"/>
<path fill-rule="evenodd" clip-rule="evenodd" d="M29.9584 55.1488C31.5025 55.0951 32.2417 54.3497 32.4683 53.1749C32.665 52.1195 32.4444 51.0222 32.3133 49.9668C32.2358 49.3525 32.045 48.7383 31.8244 48.148C31.5979 47.5457 31.3296 46.9494 31.0315 46.371C30.7275 45.7746 30.4055 45.1843 30.0478 44.6118C30.0299 44.582 29.9942 44.5701 29.9584 44.5701C29.9226 44.5701 29.8869 44.588 29.869 44.6118C29.5113 45.1843 29.1894 45.7746 28.8853 46.371C28.5872 46.9553 28.319 47.5457 28.0924 48.148C27.8718 48.7383 27.6811 49.3525 27.6036 49.9668C27.4664 51.0222 27.2459 52.1195 27.4485 53.1749C27.6691 54.3497 28.4084 55.0951 29.9584 55.1488C29.9584 55.1488 29.9584 55.1488 29.9644 55.1488H29.9584Z" fill="#D8EFFC"/>
<path fill-rule="evenodd" clip-rule="evenodd" d="M26.292 42.2202C25.8151 42.8046 25.3561 43.4128 24.9089 44.0211C24.4678 44.6233 24.0445 45.2376 23.651 45.8697C23.2695 46.4719 22.9118 47.0981 22.6256 47.754C22.2858 48.5412 21.9758 49.5549 22.1666 50.4136C22.2858 50.9741 22.6197 51.4273 23.1741 51.6122C23.7047 51.7911 24.3009 51.6778 24.7837 51.4154C25.3978 51.0815 25.8628 50.5209 26.137 49.8829C26.3159 49.4655 26.4053 48.9705 26.4769 48.5173C26.5722 47.8792 26.614 47.2293 26.6378 46.5793C26.6915 45.1481 26.6378 43.6991 26.4769 42.2679C26.4769 42.2261 26.447 42.1963 26.4053 42.1844C26.3636 42.1725 26.3278 42.1844 26.298 42.2202H26.292Z" fill="#D8EFFC"/>
<path fill-rule="evenodd" clip-rule="evenodd" d="M25.5524 16.1072C24.8847 16.1072 24.3481 16.6439 24.3481 17.3117C24.3481 17.9796 24.8847 18.5163 25.5524 18.5163C26.2201 18.5163 26.7567 17.9796 26.7567 17.3117C26.7567 16.6439 26.2201 16.1072 25.5524 16.1072Z" fill="#447EF7"/>
<path fill-rule="evenodd" clip-rule="evenodd" d="M34.3516 16.1072C35.0193 16.1072 35.5559 16.6439 35.5559 17.3117C35.5559 17.9796 35.0193 18.5163 34.3516 18.5163C33.6839 18.5163 33.1473 17.9796 33.1473 17.3117C33.1473 16.6439 33.6839 16.1072 34.3516 16.1072Z" fill="#447EF7"/>
<path fill-rule="evenodd" clip-rule="evenodd" d="M15.15 12.6133C15.15 12.6789 15.15 12.7505 15.15 12.8161C15.15 15.8633 17.0816 18.5825 19.9611 19.5783C20.0088 19.5962 20.0624 19.5724 20.0743 19.5247L20.6526 17.8788C20.6526 17.8788 20.6586 17.8311 20.6526 17.8073C20.6407 17.7834 20.6228 17.7715 20.599 17.7596C18.5601 17.1811 17.1531 15.3147 17.1531 13.1977C17.1531 13.0546 17.1591 12.9175 17.171 12.7803C17.171 12.7565 17.171 12.7326 17.1472 12.7147C17.1293 12.6968 17.1114 12.6849 17.0875 12.6849L15.2573 12.5239C15.2573 12.5239 15.2096 12.5239 15.1858 12.5477C15.1679 12.5656 15.156 12.5895 15.156 12.6133H15.15ZM15.3348 18.1352C15.2335 17.7715 14.995 17.1871 14.6969 16.9545C14.4704 16.7756 14.1961 16.7458 13.9159 16.7577C13.4807 16.7697 13.0455 16.8651 12.6223 16.9366C12.0142 17.044 11.4001 17.1394 10.7861 17.2408C9.79047 17.4018 8.80083 17.5628 7.80523 17.7238C6.48174 17.9385 5.15826 18.1472 3.83477 18.3618C3.799 18.3618 3.77515 18.3917 3.76323 18.4215C3.67976 18.6719 3.66188 19.0118 3.67976 19.2802C3.73938 20.0315 4.11497 20.6577 4.6694 21.1586C5.27749 21.7012 5.975 22.1485 6.72021 22.4764C7.03022 22.6136 7.36407 22.7448 7.69196 22.8163C7.69196 22.8163 7.69196 22.8163 7.69792 22.8163C7.8887 22.8402 8.13312 22.7985 8.30601 22.7209C8.81872 22.4824 9.31353 22.22 9.80239 21.9457C10.3986 21.6118 10.9888 21.2719 11.579 20.9201C12.664 20.2701 13.743 19.6022 14.7923 18.8866C15.0188 18.7316 15.3527 18.4513 15.3408 18.1531C15.3408 18.1472 15.3408 18.1412 15.3408 18.1352H15.3348ZM16.4258 19.6559L7.32234 25.0227C7.20311 25.0943 7.07791 25.2314 7.01233 25.3567C6.83944 25.6727 6.95868 25.9768 7.17926 26.2332C7.57273 26.6865 8.39544 27.1277 8.93199 27.402C9.2718 27.575 9.62354 27.736 9.97528 27.8731C10.2197 27.9685 10.482 28.0759 10.7443 28.1295C10.9649 28.1713 11.2451 28.2369 11.4657 28.2071C11.6326 28.1892 11.7399 28.1176 11.8711 28.0222C12.1632 27.8075 12.4553 27.6048 12.7475 27.402C13.3436 26.9786 13.9398 26.5553 14.536 26.1259C15.2335 25.625 15.925 25.1122 16.6106 24.5993C17.2008 24.1521 17.791 23.7049 18.3574 23.2338C18.7628 22.8939 19.5855 22.1902 19.7584 21.7012C19.8538 21.4269 19.7345 21.2838 19.5318 21.1228C19.4603 21.0691 19.3828 21.0274 19.3053 20.9856C19.1741 20.9141 19.043 20.8485 18.9118 20.7829C18.572 20.61 18.2262 20.449 17.8745 20.288C17.4214 20.0792 16.9623 19.8705 16.5093 19.6618C16.4795 19.6499 16.4496 19.6499 16.4258 19.6618V19.6559ZM19.4901 24.0686C18.4408 24.8617 17.3975 25.6667 16.3602 26.4718C15.5375 27.1158 14.7148 27.7658 13.8981 28.4217C13.5463 28.708 13.2005 28.9942 12.8607 29.2804C12.6044 29.5011 12.348 29.7157 12.1096 29.9483C11.7638 30.2823 11.0126 30.9978 10.9888 31.4928C10.9649 31.9162 11.4776 32.1428 11.8055 32.2799C12.0976 32.3992 12.3778 32.5423 12.6699 32.6616C13.0098 32.8047 13.3555 32.9239 13.7132 32.9955C14.6969 33.2042 15.6389 33.0611 16.5689 32.7033C16.6523 32.6854 16.7537 32.6317 16.8252 32.584C17.0637 32.4409 17.2783 32.2322 17.4631 32.0235C18.1726 31.2006 18.888 30.3836 19.6034 29.5667C19.6034 29.5667 19.6034 29.5607 19.6093 29.5547C19.8418 29.191 19.9968 28.6424 19.9968 28.2071C19.9968 27.6644 19.9789 27.1277 19.9551 26.591C19.9313 26.0066 19.9014 25.4282 19.8597 24.8438C19.8478 24.6828 19.818 24.0925 19.6809 24.0149C19.6689 24.009 19.657 24.003 19.6451 24.003C19.5974 24.003 19.5437 24.0328 19.502 24.0567C19.502 24.0567 19.502 24.0567 19.4961 24.0567L19.4901 24.0686ZM15.9489 35.2913C15.8058 35.4225 15.9966 35.6909 16.0919 35.8042C16.6941 36.5138 17.4512 36.9133 18.3872 36.645C18.9893 36.472 19.5318 36.0248 19.9611 35.5835C20.2711 35.2615 20.5334 34.9097 20.7957 34.5519C20.8493 34.4803 20.9567 34.3551 20.9686 34.2657C20.9805 34.1702 20.903 33.9675 20.8732 33.8721C20.7242 33.395 20.599 32.6914 20.6347 32.1964C20.6526 31.9877 20.6168 31.7611 20.5692 31.5584C20.5453 31.457 20.4917 31.29 20.438 31.2065C20.4201 31.1827 20.4022 31.1708 20.3724 31.1648C20.3426 31.1648 20.3188 31.1648 20.3009 31.1887L15.9548 35.2854C15.9548 35.2854 15.9548 35.2854 15.9489 35.2854V35.2913ZM43.9568 35.2913C44.0998 35.4225 43.9091 35.6909 43.8137 35.8042C43.2115 36.5138 42.4544 36.9133 41.5184 36.645C40.9163 36.472 40.3738 36.0248 39.9446 35.5835C39.6345 35.2615 39.3722 34.9097 39.1099 34.5519C39.0563 34.4803 38.949 34.3551 38.937 34.2657C38.9251 34.1702 39.0026 33.9675 39.0324 33.8721C39.1815 33.395 39.3067 32.6914 39.2709 32.1964C39.253 31.9877 39.2888 31.7611 39.3365 31.5584C39.3603 31.457 39.414 31.29 39.4676 31.2065C39.4855 31.1827 39.5034 31.1708 39.5332 31.1648C39.563 31.1648 39.5869 31.1648 39.6047 31.1887L43.9508 35.2854C43.9508 35.2854 43.9508 35.2854 43.9568 35.2854V35.2913ZM40.4155 24.0686C41.4648 24.8617 42.5081 25.6667 43.5454 26.4718C44.3681 27.1158 45.1908 27.7658 46.0076 28.4217C46.3593 28.708 46.7051 28.9942 47.0449 29.2804C47.3012 29.5011 47.5576 29.7157 47.7961 29.9483C48.1418 30.2823 48.893 30.9978 48.9169 31.4928C48.9407 31.9162 48.428 32.1428 48.1001 32.2799C47.808 32.3992 47.5278 32.5423 47.2357 32.6616C46.8959 32.8047 46.5501 32.9239 46.1924 32.9955C45.2087 33.2042 44.2668 33.0611 43.3367 32.7033C43.2533 32.6854 43.1519 32.6317 43.0804 32.584C42.8419 32.4409 42.6273 32.2322 42.4425 32.0235C41.7331 31.2006 41.0177 30.3836 40.3022 29.5667C40.3022 29.5667 40.3023 29.5607 40.2963 29.5547C40.0638 29.191 39.9088 28.6424 39.9088 28.2071C39.9088 27.6644 39.9267 27.1277 39.9505 26.591C39.9744 26.0066 40.0042 25.4282 40.0459 24.8438C40.0578 24.6828 40.0876 24.0925 40.2248 24.0149C40.2367 24.009 40.2486 24.003 40.2605 24.003C40.3082 24.003 40.3619 24.0328 40.4036 24.0567C40.4036 24.0567 40.4036 24.0567 40.4096 24.0567L40.4155 24.0686ZM46.3891 12.3748C48.1001 12.2198 49.8111 12.0647 51.5221 11.9156C52.7442 11.8083 53.9723 11.7069 55.1945 11.6056C55.6237 11.5698 56.053 11.54 56.4822 11.5101C56.6193 11.5042 56.7505 11.4923 56.8876 11.4863C56.9591 11.4863 57.0247 11.4803 57.0963 11.4863C57.5613 11.5221 57.7342 11.8023 57.603 12.2377C57.3347 13.1321 56.9591 13.9372 56.4285 14.7064C56.0887 15.2073 55.6714 15.6665 55.2183 16.066C55.0753 16.1912 54.5864 16.5848 54.4135 16.5848C54.3658 16.5848 54.3241 16.5729 54.2824 16.5669C54.181 16.549 54.0856 16.5311 53.9843 16.5133C53.6564 16.4536 53.3285 16.394 53.0006 16.3344C52.0408 16.1614 51.0809 15.9825 50.1211 15.8036C48.7678 15.5532 47.4145 15.3027 46.0672 15.0523C46.0195 15.0463 45.9897 14.9986 45.9956 14.9509L46.3116 12.4464C46.3116 12.4046 46.3533 12.3688 46.3951 12.3688L46.3891 12.3748ZM44.5648 18.1293C44.6662 17.7655 44.9047 17.1811 45.2027 16.9486C45.4293 16.7697 45.7035 16.7399 45.9837 16.7518C46.4189 16.7637 46.8541 16.8591 47.2774 16.9307C47.8855 17.038 48.4995 17.1334 49.1136 17.2348C50.1092 17.3958 51.0988 17.5568 52.0944 17.7178C53.4179 17.9325 54.7414 18.1412 56.0649 18.3559C56.1007 18.3559 56.1245 18.3857 56.1364 18.4155C56.2199 18.666 56.2378 19.0059 56.2199 19.2742C56.1603 20.0256 55.7847 20.6517 55.2303 21.1526C54.6222 21.6953 53.9247 22.1425 53.1794 22.4705C52.8694 22.6076 52.5356 22.7388 52.2077 22.8104C52.2077 22.8104 52.2077 22.8104 52.2017 22.8104C52.011 22.8342 51.7665 22.7925 51.5936 22.715C51.0809 22.4764 50.5861 22.2141 50.0973 21.9398C49.5011 21.6058 48.9109 21.2659 48.3207 20.9141C47.2357 20.2641 46.1566 19.5962 45.1074 18.8806C44.8808 18.7256 44.547 18.4453 44.5589 18.1472C44.5589 18.1412 44.5589 18.1352 44.5589 18.1293H44.5648ZM43.4739 19.6499L52.5773 25.0168C52.6965 25.0883 52.8217 25.2255 52.8873 25.3507C53.0602 25.6667 52.941 25.9709 52.7264 26.2273C52.3329 26.6805 51.5102 27.1218 50.9736 27.3961C50.6338 27.569 50.2821 27.73 49.9303 27.8672C49.6859 27.9626 49.4236 28.0699 49.1613 28.1236C48.9407 28.1653 48.6605 28.2309 48.4399 28.2011C48.273 28.1832 48.1657 28.1117 48.0345 28.0162C47.7424 27.8016 47.4503 27.5988 47.1582 27.3961C46.562 26.9727 45.9658 26.5493 45.3697 26.1199C44.6721 25.619 43.9806 25.1062 43.295 24.5934C42.7048 24.1461 42.1146 23.6989 41.5482 23.2278C41.1428 22.8879 40.3201 22.1842 40.1473 21.6953C40.0519 21.421 40.1711 21.2778 40.3738 21.1168C40.4453 21.0632 40.5228 21.0214 40.6003 20.9797C40.7315 20.9081 40.8626 20.8425 40.9938 20.7769C41.3336 20.604 41.6794 20.443 42.0311 20.282C42.4842 20.0733 42.9433 19.8646 43.3964 19.6559C43.4262 19.6439 43.456 19.6439 43.4798 19.6559L43.4739 19.6499ZM44.7437 12.6014C44.7437 12.667 44.7437 12.7386 44.7437 12.8042C44.7437 15.8513 42.8121 18.5706 39.9326 19.5664C39.8849 19.5843 39.8313 19.5604 39.8194 19.5127L39.2411 17.8669C39.2411 17.8669 39.2351 17.8192 39.2411 17.7953C39.253 17.7715 39.2709 17.7596 39.2947 17.7476C41.3336 17.1692 42.7406 15.3027 42.7406 13.1858C42.7406 13.0427 42.7346 12.9055 42.7227 12.7684C42.7227 12.7445 42.7227 12.7207 42.7465 12.7028C42.7644 12.6849 42.7823 12.673 42.8062 12.673L44.6364 12.512C44.6364 12.512 44.6841 12.512 44.7079 12.5358C44.7258 12.5537 44.7377 12.5776 44.7377 12.6014H44.7437Z" fill="#D8EFFC"/>
<path fill-rule="evenodd" clip-rule="evenodd" d="M10.9464 12.1485C10.9464 12.1485 10.1833 14.4801 9.47383 15.8755C8.61535 16.0365 7.76283 16.1916 6.90435 16.3466C6.57646 16.4062 6.24857 16.4659 5.92068 16.5255C5.81933 16.5434 5.72394 16.5613 5.62259 16.5792C5.58086 16.5851 5.53317 16.5971 5.49144 16.5971C5.31855 16.5971 4.82969 16.2035 4.68661 16.0783C4.22756 15.6847 3.81621 15.2196 3.47639 14.7187C2.94581 13.9494 2.57618 13.1384 2.30195 12.2499C2.17079 11.8086 2.33772 11.5284 2.80869 11.4985C2.88023 11.4985 2.94581 11.4985 3.01735 11.4985C3.15446 11.5045 3.29158 11.5105 3.42274 11.5224C3.85198 11.5522 4.28122 11.582 4.71046 11.6178C5.9326 11.7132 7.1607 11.8205 8.38284 11.9279C9.24132 11.9994 10.0938 12.077 10.9523 12.1545L10.9464 12.1485ZM13.0031 16.8714C13.021 17.3782 12.872 18.881 10.9881 21.2662C10.5946 21.4988 10.2011 21.7254 9.80172 21.946C9.31286 22.2203 8.81208 22.4827 8.30534 22.7212C8.13245 22.8047 7.88802 22.8405 7.69725 22.8167C7.69725 22.8167 7.69725 22.8167 7.69129 22.8167C7.3634 22.7391 7.02954 22.6079 6.71954 22.4768C5.97433 22.1488 5.27085 21.7075 4.66873 21.1589C4.11429 20.6639 3.73871 20.0319 3.67909 19.2805C3.66121 19.0181 3.67909 18.6782 3.76255 18.4218C3.77448 18.386 3.79832 18.3622 3.83409 18.3622C5.15758 18.1534 6.48107 17.9388 7.80456 17.7241C8.80016 17.5631 9.78979 17.4021 10.7854 17.2411C11.3994 17.1397 12.0075 17.0443 12.6216 16.937C12.7527 16.9131 12.8779 16.8893 13.0091 16.8654L13.0031 16.8714ZM16.4192 19.6621H16.5086C16.5086 19.6621 16.7828 20.0736 17.5221 20.3539C18.2613 20.6341 17.5757 22.4231 17.2121 22.9896C16.9796 23.3533 15.8349 24.7785 15.0539 25.7446C14.8811 25.8698 14.7082 25.995 14.5353 26.1203C13.9391 26.5496 13.3429 26.973 12.7468 27.3964C12.4547 27.6051 12.1566 27.8078 11.8704 28.0166C11.7393 28.112 11.626 28.1835 11.465 28.2014C11.2444 28.2253 10.9642 28.1656 10.7437 28.1239C10.4813 28.0702 10.219 27.9688 9.9746 27.8675C9.6169 27.7244 9.27113 27.5634 8.93131 27.3964C8.39476 27.128 7.56609 26.6868 7.17859 26.2276C6.958 25.9712 6.84473 25.6671 7.01166 25.351C7.07724 25.2258 7.20243 25.0946 7.32167 25.0171L16.4192 19.6502V19.6621ZM17.7128 25.4285C17.7128 25.4285 18.464 26.1262 18.5057 26.7285C18.5534 27.3308 18.6131 28.6188 17.9096 29.6743C17.2061 30.7298 16.9796 31.9046 17.0034 32.4711C16.9438 32.5188 16.8842 32.5605 16.8186 32.5963C16.7471 32.638 16.6457 32.6977 16.5622 32.7155C15.6322 33.0733 14.6903 33.2165 13.7066 33.0077C13.3489 32.9302 13.0031 32.811 12.6633 32.6738C12.3712 32.5545 12.091 32.4174 11.7989 32.2922C11.4769 32.155 10.9583 31.9344 10.9821 31.505C11.006 31.0101 11.7571 30.2945 12.1029 29.9606C12.3473 29.728 12.5977 29.5074 12.8541 29.2927C13.1939 29.0005 13.5456 28.7142 13.8914 28.434C14.7022 27.7721 15.5249 27.128 16.3536 26.484C16.8007 26.1322 17.2538 25.7863 17.7069 25.4345L17.7128 25.4285ZM18.5892 32.811L19.2033 36.2517C18.9529 36.4246 18.6786 36.5678 18.3925 36.6512C17.4565 36.9196 16.6994 36.5141 16.0972 35.8104C16.0018 35.6971 15.8111 35.4288 15.9542 35.2976C15.9542 35.2976 15.9542 35.2976 15.9601 35.2976L18.5892 32.8229V32.811ZM48.9639 12.1485C48.9639 12.1485 49.727 14.4801 50.4364 15.8755C51.2949 16.0365 52.1474 16.1916 53.0059 16.3466C53.3338 16.4062 53.6617 16.4659 53.9896 16.5255C54.0909 16.5434 54.1863 16.5613 54.2876 16.5792C54.3294 16.5851 54.3771 16.5971 54.4188 16.5971C54.5917 16.5971 55.0805 16.2035 55.2236 16.0783C55.6827 15.6847 56.094 15.2196 56.4338 14.7187C56.9644 13.9494 57.334 13.1384 57.6083 12.2499C57.7394 11.8086 57.5725 11.5284 57.1015 11.4985C57.03 11.4985 56.9644 11.4985 56.8929 11.4985C56.7558 11.5045 56.6186 11.5105 56.4875 11.5224C56.0582 11.5522 55.629 11.582 55.1998 11.6178C53.9776 11.7132 52.7495 11.8205 51.5274 11.9279C50.6689 11.9994 49.8164 12.077 48.9579 12.1545L48.9639 12.1485ZM46.9071 16.8714C46.8892 17.3782 47.0383 18.881 48.9221 21.2662C49.3156 21.4988 49.7091 21.7254 50.1085 21.946C50.5974 22.2203 51.0981 22.4827 51.6049 22.7212C51.7778 22.8047 52.0222 22.8405 52.213 22.8167C52.213 22.8167 52.213 22.8167 52.2189 22.8167C52.5468 22.7391 52.8807 22.6079 53.1907 22.4768C53.9359 22.1488 54.6394 21.7075 55.2415 21.1589C55.7959 20.6639 56.1715 20.0319 56.2311 19.2805C56.249 19.0181 56.2311 18.6782 56.1477 18.4218C56.1357 18.386 56.1119 18.3622 56.0761 18.3622C54.7526 18.1534 53.4292 17.9388 52.1057 17.7241C51.1101 17.5631 50.1204 17.4021 49.1248 17.2411C48.5108 17.1397 47.9027 17.0443 47.2886 16.937C47.1575 16.9131 47.0323 16.8893 46.9011 16.8654L46.9071 16.8714ZM43.4911 19.6621H43.4016C43.4016 19.6621 43.1274 20.0736 42.3882 20.3539C41.6489 20.6341 42.3345 22.4231 42.6982 22.9896C42.9307 23.3533 44.0753 24.7785 44.8563 25.7446C45.0292 25.8698 45.2021 25.995 45.375 26.1203C45.9711 26.5496 46.5673 26.973 47.1634 27.3964C47.4556 27.6051 47.7537 27.8078 48.0398 28.0166C48.171 28.112 48.2842 28.1835 48.4452 28.2014C48.6658 28.2253 48.946 28.1656 49.1666 28.1239C49.4229 28.0702 49.6912 27.9688 49.9356 27.8675C50.2933 27.7244 50.6391 27.5634 50.9789 27.3964C51.5155 27.128 52.3441 26.6868 52.7316 26.2276C52.9522 25.9712 53.0655 25.6671 52.8926 25.351C52.827 25.2258 52.7018 25.0946 52.5826 25.0171L43.4851 19.6502L43.4911 19.6621ZM42.1974 25.4285C42.1974 25.4285 41.4462 26.1262 41.4045 26.7285C41.3568 27.3308 41.2972 28.6188 42.0007 29.6743C42.7041 30.7298 42.9307 31.9046 42.9068 32.4711C42.9664 32.5188 43.0261 32.5605 43.0916 32.5963C43.1632 32.638 43.2645 32.6977 43.348 32.7155C44.278 33.0733 45.2199 33.2165 46.2036 33.0077C46.5613 32.9302 46.9071 32.811 47.2469 32.6738C47.539 32.5545 47.8192 32.4174 48.1114 32.2922C48.4333 32.155 48.9519 31.9344 48.9281 31.505C48.9043 31.0101 48.1531 30.2945 47.8073 29.9606C47.5629 29.728 47.3125 29.5074 47.0561 29.2927C46.7163 29.0005 46.3646 28.7142 46.0188 28.434C45.208 27.7721 44.3853 27.128 43.5566 26.484C43.1095 26.1322 42.6564 25.7863 42.2033 25.4345L42.1974 25.4285ZM41.321 32.811L40.707 36.2517C40.9574 36.4246 41.2316 36.5678 41.5178 36.6512C42.4537 36.9196 43.2109 36.5141 43.813 35.8104C43.9084 35.6971 44.0992 35.4288 43.9561 35.2976C43.9561 35.2976 43.9561 35.2976 43.9501 35.2976L41.321 32.8229V32.811Z" fill="#B4E0D9"/>
<path d="M33.298 38.13C33.0297 37.5217 32.684 36.9731 32.3442 36.4424C32.2309 36.2635 32.1116 36.0727 31.9984 35.8878C31.7838 35.536 31.5453 35.1543 31.3128 34.7846C31.0385 34.3493 30.7583 33.9021 30.508 33.4846L30.037 32.6975L29.566 33.4846C29.3454 33.8544 29.1249 34.242 28.9102 34.6236C28.6718 35.047 28.4214 35.4823 28.1829 35.8818C28.0696 36.0667 27.9504 36.2516 27.8371 36.4364C27.4973 36.9671 27.1515 37.5158 26.8833 38.124C26.2275 39.6208 26.5494 41.0102 27.8193 42.1372C28.1889 41.7198 28.2545 41.1056 27.9623 40.6345C27.6225 40.0859 27.5689 39.4955 27.7894 38.8396H32.3978C32.6184 39.5015 32.5647 40.0859 32.2249 40.6345C31.9328 41.1056 31.9984 41.7198 32.368 42.1372C33.6378 41.0102 33.9598 39.6208 33.304 38.124L33.298 38.13ZM29.1189 36.4603C29.3693 36.0488 29.6197 35.6016 29.8641 35.1722C29.9237 35.0649 29.9893 34.9576 30.0489 34.8443C30.1622 35.0232 30.2695 35.1961 30.3828 35.375C30.6093 35.7387 30.8478 36.1144 31.0624 36.4603C31.1816 36.6511 31.3009 36.8479 31.4201 37.0327C31.5751 37.2713 31.7182 37.5098 31.8613 37.7424H28.326C28.4631 37.5098 28.6122 37.2713 28.7672 37.0327C28.8864 36.8479 29.0056 36.6571 29.1249 36.4603H29.1189Z" fill="#D8EFFC"/>
<path d="M34.6693 21.9634C34.2103 22.4822 34.1566 23.2335 34.5143 23.8239C34.9674 24.5753 34.9853 25.3862 34.5799 26.3105C34.2997 26.9546 33.9182 27.5509 33.5187 28.183C33.3756 28.4096 33.2266 28.6421 33.0835 28.8807C32.8272 29.3041 32.541 29.7573 32.2608 30.2045C32.1297 30.4192 31.9925 30.6338 31.8554 30.8485C31.7779 30.7173 31.7064 30.5861 31.6289 30.455C31.3785 30.0137 31.1281 29.5664 30.8658 29.1371C30.9135 29.0596 30.9612 28.982 31.0089 28.9105C31.4202 28.2665 31.8435 27.5986 32.1654 26.8592C32.2727 26.6147 32.3562 26.3702 32.4218 26.1316C31.5812 26.1316 30.8121 26.5968 30.4306 27.3422C30.3054 27.5867 30.1802 27.8133 30.0788 27.9683C29.9775 27.8073 29.8523 27.5807 29.7271 27.3422C29.3396 26.5968 28.5705 26.1316 27.7359 26.1316C27.8015 26.3702 27.885 26.6147 27.9923 26.8592C28.3142 27.5986 28.7375 28.2665 29.1488 28.9105C29.1965 28.982 29.2442 29.0596 29.2919 29.1371C29.0773 29.4889 28.8448 29.8527 28.6182 30.2105C28.4871 30.4251 28.35 30.6398 28.2128 30.8545C28.1353 30.7233 28.0638 30.5921 27.9863 30.4609C27.6882 29.9362 27.3842 29.3935 27.0801 28.8926C26.937 28.66 26.788 28.4215 26.6449 28.1949C26.2455 27.5628 25.8639 26.9665 25.5838 26.3225C25.1784 25.3982 25.1962 24.5872 25.6493 23.8358C26.007 23.2455 25.9534 22.4941 25.4943 21.9753C23.9503 23.3468 23.5568 25.0404 24.3556 26.8592C24.6776 27.5986 25.1009 28.2665 25.5122 28.9105C25.6553 29.1311 25.7984 29.3577 25.9355 29.5843C26.2336 30.0733 26.5317 30.604 26.8238 31.1169C27.0861 31.576 27.3544 32.0531 27.6226 32.5003L28.195 33.4604L28.7673 32.5003C29.0654 31.9994 29.4111 31.4508 29.745 30.9201C29.8463 30.7531 29.9536 30.5861 30.061 30.4192C30.1921 30.6517 30.3233 30.8843 30.4544 31.1109C30.7167 31.5701 30.985 32.0471 31.2533 32.4944L31.8256 33.4544L32.3979 32.4944C32.696 31.9935 33.0418 31.4448 33.3756 30.9141C33.6558 30.4669 33.948 30.0077 34.2103 29.5724C34.3474 29.3458 34.4905 29.1192 34.6336 28.8986C35.0449 28.2545 35.4682 27.5867 35.7901 26.8472C36.589 25.0285 36.1955 23.3409 34.6514 21.9634H34.6693Z" fill="#D8EFFC"/>
<path d="M90.284 27.6511C89.3063 27.192 88.5372 26.5122 87.9589 25.6177C87.3866 24.7232 87.0945 23.6379 87.0945 22.3618C87.0945 21.4733 87.2495 20.5132 87.5535 19.4756C88.2212 17.2514 89.2347 15.6532 90.588 14.6693C91.9413 13.6854 93.39 13.1904 94.9281 13.1904C95.7568 13.1904 96.4901 13.3157 97.1339 13.5661C97.7718 13.8166 98.362 14.1803 98.8986 14.6574L99.4888 14.1922C99.8822 13.8822 100.21 13.6675 100.484 13.5482C100.753 13.429 101.057 13.3693 101.391 13.3693C101.754 13.3693 102.046 13.4528 102.261 13.6138C102.482 13.7748 102.589 14.0133 102.589 14.3234C102.589 14.4844 102.559 14.6514 102.499 14.8124L101.277 18.277C101.146 18.6766 100.991 18.9568 100.806 19.1238C100.621 19.2908 100.353 19.3683 99.9896 19.3683C99.6259 19.3683 99.304 19.2311 99.0595 18.9568C98.8211 18.6825 98.5468 18.2114 98.2428 17.5436C97.8911 16.8459 97.6109 16.3867 97.3903 16.1661C97.1697 15.9454 96.8537 15.8321 96.4304 15.8321C95.8343 15.8321 95.262 16.2078 94.7075 16.9532C94.1531 17.6986 93.6523 18.8256 93.1992 20.3164C92.8236 21.5747 92.6329 22.6242 92.6329 23.471C92.6329 24.2104 92.77 24.765 93.0502 25.1228C93.3244 25.4865 93.7 25.6654 94.165 25.6654C94.8506 25.6654 95.411 25.5104 95.8581 25.2003C96.2993 24.8902 96.7583 24.4668 97.2233 23.9361C97.5155 23.6081 97.748 23.3696 97.9328 23.2145C98.1116 23.0595 98.3084 22.982 98.5111 22.982C98.7734 22.982 99.0476 23.1132 99.3397 23.3815C99.6319 23.6499 99.769 23.9122 99.7571 24.1806C99.769 24.5086 99.5126 25.0095 98.982 25.6893C98.4515 26.3691 97.7182 26.9833 96.7762 27.52C95.8402 28.0626 94.7731 28.331 93.5808 28.331C92.3884 28.331 91.2617 28.1044 90.284 27.6452V27.6511Z" fill="#4B66EA"/>
<path d="M113.904 17.6743C114.84 18.4912 115.311 19.5527 115.311 20.8705C115.311 21.3178 115.251 21.8127 115.138 22.3613C114.864 23.5778 114.345 24.6393 113.588 25.5516C112.831 26.464 111.907 27.1676 110.804 27.6626C109.707 28.1575 108.515 28.408 107.239 28.408C105.218 28.408 103.721 27.9965 102.756 27.1736C101.79 26.3507 101.307 25.2594 101.307 23.8998C101.307 23.4407 101.367 22.9278 101.48 22.3673C101.754 21.2104 102.285 20.1848 103.06 19.2903C103.835 18.3958 104.789 17.6981 105.915 17.2032C107.042 16.7082 108.246 16.4578 109.528 16.4578C111.507 16.4578 112.962 16.8633 113.904 17.6802V17.6743ZM108.491 19.2605C108.151 19.815 107.746 20.8646 107.281 22.4031C106.816 23.9416 106.583 25.0269 106.583 25.647C106.583 25.975 106.637 26.1897 106.738 26.303C106.839 26.4163 106.976 26.4699 107.155 26.4699C107.459 26.4998 107.775 26.2314 108.103 25.6709C108.431 25.1103 108.842 24.0131 109.337 22.3852C109.79 20.948 110.011 19.9045 110.011 19.2545C110.011 18.9444 109.963 18.7297 109.868 18.6105C109.773 18.4912 109.641 18.4316 109.463 18.4316C109.158 18.4316 108.831 18.7118 108.491 19.2664V19.2605Z" fill="#4B66EA"/>
<path d="M123.789 12.2777C124.188 12.6056 124.391 13.0469 124.391 13.6074C124.391 13.9354 124.338 14.2515 124.236 14.5616L120.808 25.8916C120.766 26.0705 120.743 26.2255 120.743 26.3567C120.743 26.5476 120.778 26.7026 120.85 26.8099C120.921 26.9173 121.023 27.0306 121.154 27.132C121.255 27.2333 121.327 27.3228 121.375 27.3884C121.416 27.454 121.428 27.5374 121.398 27.6448C121.327 27.8356 121.178 27.9787 120.963 28.0682C120.743 28.1576 120.409 28.1994 119.962 28.1994H114.99C114.614 28.1994 114.334 28.1338 114.161 28.0085C113.988 27.8833 113.928 27.7163 113.988 27.5076C114.048 27.3287 114.197 27.1737 114.447 27.0425C114.668 26.9232 114.847 26.7861 114.996 26.6191C115.139 26.4581 115.264 26.1957 115.365 25.8439L118.68 14.7583C118.722 14.6272 118.745 14.5139 118.745 14.4244C118.745 14.2634 118.704 14.1262 118.626 14.0249C118.549 13.9235 118.441 13.8162 118.31 13.7148C118.167 13.5955 118.06 13.4941 117.994 13.4047C117.929 13.3153 117.917 13.196 117.959 13.0469C118.048 12.707 118.507 12.4088 119.336 12.1584C120.164 11.9079 121.029 11.7827 121.935 11.7827C122.782 11.7827 123.402 11.9437 123.801 12.2717L123.789 12.2777Z" fill="#4B66EA"/>
<path d="M131.772 12.2777C132.172 12.6056 132.374 13.0469 132.374 13.6074C132.374 13.9354 132.321 14.2515 132.219 14.5616L128.791 25.8916C128.75 26.0705 128.726 26.2255 128.726 26.3567C128.726 26.5476 128.762 26.7026 128.833 26.8099C128.905 26.9173 129.006 27.0306 129.137 27.132C129.238 27.2333 129.31 27.3228 129.358 27.3884C129.399 27.454 129.411 27.5374 129.382 27.6448C129.31 27.8356 129.161 27.9787 128.946 28.0682C128.726 28.1576 128.392 28.1994 127.945 28.1994H122.973C122.597 28.1994 122.317 28.1338 122.144 28.0085C121.971 27.8833 121.912 27.7163 121.971 27.5076C122.031 27.3287 122.18 27.1737 122.43 27.0425C122.651 26.9232 122.83 26.7861 122.979 26.6191C123.122 26.4581 123.247 26.1957 123.348 25.8439L126.663 14.7583C126.705 14.6272 126.729 14.5139 126.729 14.4244C126.729 14.2634 126.687 14.1262 126.609 14.0249C126.532 13.9235 126.425 13.8162 126.293 13.7148C126.15 13.5955 126.043 13.4941 125.977 13.4047C125.912 13.3153 125.9 13.196 125.942 13.0469C126.031 12.707 126.49 12.4088 127.319 12.1584C128.147 11.9079 129.012 11.7827 129.918 11.7827C130.765 11.7827 131.385 11.9437 131.784 12.2717L131.772 12.2777Z" fill="#4B66EA"/>
<path d="M142.348 17.2449C143.177 17.8472 143.594 18.6105 143.594 19.5467C143.594 19.827 143.565 20.0894 143.505 20.3219C143.284 21.2999 142.676 21.9976 141.681 22.421C140.685 22.8444 139.511 23.0531 138.157 23.0531C137.472 23.0531 136.834 23.0113 136.238 22.9219C136.226 23.6911 136.429 24.2338 136.846 24.5439C137.269 24.8539 137.859 25.009 138.61 25.009C138.962 25.009 139.296 24.9672 139.612 24.8838C139.934 24.8003 140.339 24.681 140.834 24.52C141.24 24.3709 141.52 24.2994 141.663 24.2994C141.824 24.2994 141.901 24.3948 141.901 24.5856C141.913 25.1044 141.728 25.6471 141.335 26.2195C140.941 26.792 140.357 27.275 139.588 27.6745C138.819 28.0741 137.889 28.2768 136.792 28.2768C135.177 28.2768 133.853 27.8654 132.822 27.0305C131.79 26.2016 131.272 24.9971 131.272 23.4109C131.272 22.9636 131.331 22.4508 131.445 21.8545C131.808 20.0357 132.607 18.6582 133.835 17.7339C135.063 16.8096 136.56 16.3445 138.318 16.3445C140.166 16.3445 141.502 16.6426 142.331 17.2449H142.348ZM136.631 21.61C137.239 21.61 137.71 21.3237 138.026 20.7453C138.348 20.1669 138.497 19.5229 138.485 18.8132C138.473 18.3958 138.354 18.1931 138.134 18.1931C137.973 18.1931 137.782 18.3243 137.567 18.5807C137.353 18.8371 137.132 19.2307 136.923 19.7495C136.715 20.2683 136.536 20.8825 136.387 21.5921C136.446 21.61 136.524 21.6159 136.625 21.6159L136.631 21.61Z" fill="#4B66EA"/>
<path d="M157.741 13.1298C158.182 13.3326 158.546 13.6009 158.832 13.9528C159.118 14.2986 159.255 14.6743 159.255 15.0738C159.255 15.9504 158.671 16.3857 157.508 16.3857C157.175 16.3857 156.918 16.3619 156.733 16.3082C156.555 16.2546 156.334 16.1711 156.09 16.0518C156.048 16.1532 156.024 16.3023 156.024 16.499C156.024 16.7376 156.066 17.0178 156.143 17.3458C156.221 17.6738 156.322 17.9779 156.435 18.2582C156.739 18.7173 156.894 19.266 156.894 19.904C156.894 20.1843 156.859 20.5242 156.787 20.9237C156.614 21.693 156.233 22.3966 155.642 23.0347C155.052 23.6728 154.295 24.1737 153.371 24.5315C152.447 24.8952 151.434 25.0741 150.325 25.0741C149.478 25.0741 148.691 25.0145 147.946 24.8952C147.725 25.086 147.618 25.3246 147.618 25.6048C147.618 25.7956 147.708 25.9567 147.88 26.0819C148.053 26.2071 148.345 26.2727 148.751 26.2727H152.024C153.145 26.2727 154.015 26.4695 154.641 26.8631C155.267 27.2566 155.577 27.8172 155.577 28.5387C155.577 28.8071 155.535 29.0814 155.446 29.3616C155.273 29.9401 154.873 30.4767 154.253 30.9717C153.633 31.4666 152.763 31.8721 151.648 32.1822C150.527 32.4923 149.168 32.6473 147.57 32.6473C146.146 32.6473 144.935 32.5221 143.946 32.2717C142.956 32.0212 142.217 31.6753 141.728 31.24C141.239 30.8047 140.995 30.3157 140.995 29.785C140.995 29.6658 141.024 29.4869 141.084 29.2543C141.215 28.8249 141.507 28.4731 141.966 28.1988C142.425 27.9245 143.177 27.7456 144.226 27.6562C143.874 27.3163 143.701 26.9108 143.701 26.4337C143.701 26.2727 143.725 26.0998 143.767 25.9209C143.999 25.1516 144.685 24.5792 145.818 24.2094C144.727 23.6012 144.178 22.7127 144.178 21.5439C144.178 21.2159 144.22 20.876 144.309 20.5242C144.482 19.7549 144.87 19.0572 145.466 18.4251C146.062 17.7931 146.825 17.2981 147.755 16.9284C148.685 16.5587 149.705 16.3738 150.808 16.3738C152.536 16.3738 153.902 16.6064 154.885 17.0596C154.665 16.7197 154.498 16.35 154.373 15.9624C154.247 15.5688 154.188 15.211 154.188 14.883C154.188 14.3225 154.367 13.8395 154.724 13.4399C155.082 13.0404 155.625 12.8376 156.352 12.8376C156.817 12.8376 157.27 12.939 157.717 13.1358L157.741 13.1298ZM147.302 28.5149C146.897 28.5149 146.521 28.491 146.187 28.4493C146.014 28.6699 145.925 28.9681 145.925 29.3378C145.937 29.7075 146.086 29.9758 146.372 30.1368C146.658 30.2979 147.093 30.3813 147.69 30.3813C148.417 30.3813 149.007 30.268 149.466 30.0474C149.925 29.8268 150.152 29.5047 150.152 29.0933C150.152 28.9144 150.086 28.7772 149.955 28.6699C149.824 28.5685 149.633 28.5149 149.389 28.5149H147.296H147.302ZM151.994 18.9857C151.994 18.4848 151.785 18.2284 151.362 18.2284C150.998 18.2284 150.682 18.4073 150.414 18.771C150.146 19.1348 149.872 19.7788 149.597 20.715C149.365 21.4843 149.252 22.0687 149.252 22.4682C149.252 22.9572 149.454 23.2017 149.86 23.2017C150.223 23.2017 150.545 23.0168 150.82 22.6471C151.094 22.2774 151.374 21.6333 151.648 20.715C151.881 19.9577 152 19.3852 152 18.9797L151.994 18.9857Z" fill="#4B66EA"/>
<path d="M168.418 17.2449C169.247 17.8472 169.664 18.6105 169.664 19.5467C169.664 19.827 169.635 20.0894 169.575 20.3219C169.354 21.2999 168.746 21.9976 167.751 22.421C166.755 22.8444 165.581 23.0531 164.227 23.0531C163.542 23.0531 162.904 23.0113 162.308 22.9219C162.296 23.6911 162.498 24.2338 162.922 24.5439C163.345 24.8539 163.935 25.009 164.686 25.009C165.038 25.009 165.372 24.9672 165.688 24.8838C166.01 24.8003 166.415 24.681 166.91 24.52C167.316 24.3709 167.596 24.2994 167.739 24.2994C167.9 24.2994 167.977 24.3948 167.977 24.5856C167.989 25.1044 167.804 25.6471 167.411 26.2195C167.017 26.792 166.439 27.275 165.664 27.6745C164.895 28.0741 163.965 28.2768 162.874 28.2768C161.258 28.2768 159.935 27.8654 158.904 27.0305C157.872 26.2016 157.354 24.9971 157.354 23.4109C157.354 22.9636 157.413 22.4508 157.526 21.8545C157.89 20.0357 158.689 18.6582 159.917 17.7339C161.145 16.8096 162.642 16.3445 164.4 16.3445C166.248 16.3445 167.584 16.6426 168.412 17.2449H168.418ZM162.701 21.61C163.309 21.61 163.78 21.3237 164.096 20.7453C164.418 20.1669 164.567 19.5229 164.555 18.8132C164.537 18.3958 164.424 18.1931 164.204 18.1931C164.043 18.1931 163.852 18.3243 163.637 18.5807C163.417 18.8371 163.202 19.2307 162.993 19.7495C162.785 20.2683 162.606 20.8825 162.457 21.5921C162.516 21.61 162.594 21.6159 162.695 21.6159L162.701 21.61Z" fill="#4B66EA"/>
<path d="M79.3508 40.2093C79.5177 40.3047 79.6012 40.4418 79.6012 40.6207C79.6012 40.6923 79.5774 40.7937 79.5356 40.907C79.4939 41.0382 79.4283 41.1395 79.3508 41.2051C79.2733 41.2707 79.1481 41.3542 78.9931 41.4615C78.7606 41.5927 78.5758 41.7418 78.4387 41.9088C78.3016 42.0698 78.1823 42.3262 78.081 42.6661L75.4161 52.2191C75.3565 52.41 75.3267 52.5948 75.3267 52.7737C75.3267 52.9347 75.3505 53.0719 75.4042 53.1852C75.4519 53.2985 75.5234 53.4237 75.6129 53.5728C75.6725 53.6443 75.7202 53.7219 75.7679 53.8053C75.8096 53.8888 75.8334 53.9723 75.8334 54.0618C75.8334 54.0916 75.8215 54.1631 75.7917 54.2824C75.7321 54.4732 75.6009 54.6163 75.3863 54.7058C75.1777 54.7952 74.8736 54.837 74.4801 54.837H69.3531C69.0491 54.837 68.8106 54.7833 68.6437 54.6819C68.4767 54.5805 68.3933 54.4374 68.3933 54.2585C68.3933 54.1691 68.4171 54.0737 68.4589 53.9723C68.5006 53.8709 68.5662 53.7755 68.6437 53.692C68.7212 53.6086 68.7987 53.5489 68.8643 53.5131C68.9298 53.4774 68.9775 53.4416 69.0073 53.4118C69.2398 53.2806 69.4306 53.1315 69.5737 52.9705C69.7168 52.8095 69.842 52.5531 69.9433 52.2132L71.6007 46.2142L65.949 53.3462C65.484 53.9246 65.1084 54.3182 64.8282 54.5328C64.542 54.7475 64.2201 54.8549 63.8565 54.8549C63.4928 54.8549 63.2364 54.7416 63.0397 54.509C62.843 54.2824 62.6641 53.8888 62.5032 53.3402L60.4523 46.4766L58.8367 52.2311C58.7771 52.4219 58.7473 52.6067 58.7473 52.7856C58.7473 52.9645 58.7712 53.1136 58.8248 53.2329C58.8785 53.3521 58.95 53.4774 59.0514 53.6086C59.1825 53.7994 59.2481 53.9544 59.2481 54.0737C59.2481 54.1035 59.2362 54.1751 59.2064 54.2943C59.1467 54.503 59.0156 54.6461 58.8129 54.7296C58.6102 54.8131 58.3061 54.8549 57.8948 54.8549H56.0824C55.7784 54.8549 55.5399 54.8012 55.373 54.6998C55.2061 54.5984 55.1226 54.4553 55.1226 54.2764C55.1226 54.187 55.1465 54.0916 55.1882 53.9902C55.2478 53.8292 55.3432 53.704 55.4744 53.6145C55.6055 53.5251 55.683 53.4714 55.7128 53.4595C55.9453 53.3104 56.1361 53.1613 56.2792 53.0063C56.4223 52.8512 56.5475 52.5948 56.6488 52.237L59.3137 42.6423L58.9619 41.4675C58.8904 41.2469 58.8546 41.0322 58.8546 40.8235C58.8546 40.5551 58.9381 40.3643 59.105 40.2451C59.2719 40.1258 59.5283 40.0662 59.88 40.0662H63.2603C63.6955 40.0662 64.0174 40.1616 64.232 40.3524C64.4407 40.5432 64.6136 40.8772 64.7447 41.3542L66.9267 48.7307L72.8407 41.2469C73.2163 40.7758 73.5919 40.4597 73.9555 40.3047C74.3192 40.1496 74.8021 40.0721 75.3982 40.0721H78.6473C78.9514 40.0721 79.1899 40.1198 79.3568 40.2152L79.3508 40.2093Z" fill="#4B66EA"/>
<path d="M89.5991 44.0548C90.6007 44.6869 91.1074 45.641 91.1074 46.929C91.1074 47.418 91.018 47.9726 90.8451 48.5928L89.9508 51.6578C89.9389 51.7175 89.927 51.789 89.927 51.8785C89.927 52.117 90.0224 52.2363 90.2132 52.2363C90.386 52.2363 90.5351 52.1587 90.6603 52.0037C90.7855 51.8486 90.8689 51.7711 90.9107 51.7711C90.9822 51.7711 91.0478 51.8248 91.0955 51.9262C91.1491 52.0275 91.173 52.1468 91.173 52.284C91.1849 52.6835 91.0359 53.089 90.7259 53.5064C90.4158 53.9238 89.9926 54.2637 89.4739 54.5261C88.9493 54.7945 88.377 54.9257 87.751 54.9257C86.9939 54.9257 86.344 54.7825 85.8075 54.5023C85.2709 54.222 84.9013 53.8046 84.6927 53.256C84.2575 53.7867 83.7388 54.1981 83.1426 54.4903C82.5465 54.7766 81.9086 54.9257 81.223 54.9257C80.4539 54.9257 79.8041 54.7766 79.2795 54.4724C78.7548 54.1683 78.3673 53.7748 78.111 53.2977C77.8546 52.8147 77.7294 52.3078 77.7294 51.7771C77.7294 51.5386 77.7533 51.312 77.795 51.0913C78.0275 50.0716 78.5343 49.3024 79.3093 48.7836C80.0843 48.2648 81.0143 48.0084 82.0934 48.0084C83.2976 48.0084 84.484 48.1992 85.6525 48.5868L86.201 47.1198C86.3917 46.4997 86.4871 46.0167 86.4871 45.6768C86.4752 45.319 86.356 45.0566 86.1354 44.8777C85.9148 44.6988 85.5809 44.6093 85.1338 44.6093C85.2232 44.8479 85.265 45.0924 85.265 45.3428C85.265 45.8914 85.0623 46.3625 84.6569 46.7621C84.2515 47.1616 83.6672 47.3643 82.9101 47.3643C82.1947 47.3643 81.6403 47.2033 81.2408 46.8873C80.8414 46.5712 80.6387 46.1717 80.6387 45.7006C80.6387 44.9612 81.0441 44.347 81.8609 43.858C82.6776 43.369 83.9176 43.1245 85.5929 43.1245C87.2681 43.1245 88.6035 43.4406 89.6051 44.0667L89.5991 44.0548ZM83.3692 50.3161C83.1128 50.6322 82.9876 50.978 82.9876 51.3477C82.9876 51.5863 83.0413 51.7771 83.1486 51.9262C83.2559 52.0753 83.4109 52.1468 83.6196 52.1468C83.8103 52.1468 84.013 52.0693 84.2396 51.9142C84.4661 51.7592 84.6271 51.5266 84.7284 51.2166L85.1875 49.9047C84.9371 49.8629 84.6629 49.8391 84.3588 49.8391C83.9534 49.8391 83.6196 50.0001 83.3632 50.3161H83.3692Z" fill="#4B66EA"/>
<path d="M102.376 43.2448C103.258 43.4655 103.932 43.7756 104.403 44.1751C104.874 44.5746 105.112 45.0278 105.112 45.5287C105.112 46.0296 104.909 46.4709 104.51 46.7929C104.11 47.1209 103.556 47.2819 102.841 47.2819C102.125 47.2819 101.499 47.097 100.999 46.7273C100.498 46.3576 100.247 45.8925 100.247 45.326C100.247 45.1352 100.277 44.9503 100.337 44.7714C100.074 44.6998 99.842 44.6581 99.6393 44.6581C99.2756 44.6581 98.9716 44.7475 98.7331 44.9264C98.4946 45.1053 98.3813 45.3558 98.3933 45.6838C98.3933 46.0714 98.584 46.3934 98.9596 46.6617C99.3352 46.9301 99.9493 47.264 100.79 47.6635C101.517 47.9915 102.119 48.2897 102.59 48.564C103.061 48.8383 103.461 49.1842 103.789 49.5956C104.116 50.013 104.277 50.502 104.277 51.0626C104.277 51.1818 104.248 51.4025 104.188 51.7304C103.955 52.7203 103.306 53.5075 102.245 54.0859C101.183 54.6643 99.7883 54.9506 98.0535 54.9506C96.104 54.9506 94.5599 54.6822 93.4153 54.1515C92.2706 53.6208 91.7043 52.8873 91.7043 51.9511C91.7043 51.313 91.8951 50.836 92.2706 50.508C92.6462 50.18 93.153 50.019 93.7789 50.019C94.5063 50.019 95.1263 50.2516 95.6449 50.7048C96.1636 51.1639 96.42 51.7483 96.42 52.4579C96.42 52.6488 96.3961 52.8515 96.3544 53.0602C96.7061 53.1497 97.04 53.1914 97.3559 53.1914C97.7315 53.1914 98.0475 53.09 98.2919 52.8813C98.5363 52.6726 98.6615 52.3864 98.6615 52.0167C98.6496 51.6768 98.4767 51.3846 98.1608 51.1401C97.8388 50.8956 97.3321 50.6034 96.6346 50.2635C95.9788 49.9534 95.4422 49.6612 95.019 49.3869C94.5957 49.1126 94.238 48.7667 93.9399 48.3553C93.6418 47.9438 93.4928 47.4548 93.4928 46.8883C93.4928 45.6718 93.9936 44.7058 94.9892 43.9902C95.9848 43.2746 97.3977 42.9109 99.2339 42.9109C100.438 42.9109 101.487 43.0242 102.364 43.2448H102.376Z" fill="#4B66EA"/>
<path d="M115.4 43.5783C115.555 43.6975 115.627 43.8586 115.627 44.0673C115.627 44.1269 115.615 44.2283 115.585 44.3773C115.394 45.0273 114.959 45.3553 114.274 45.3553H113.01L111.376 50.8414C111.305 51.0621 111.269 51.2946 111.269 51.5272C111.269 51.7956 111.341 51.9804 111.49 52.0818C111.633 52.1832 111.841 52.2368 112.098 52.2368C112.33 52.2368 112.622 52.207 112.968 52.1474C113.141 52.1056 113.296 52.0818 113.427 52.0818C113.528 52.0818 113.606 52.1176 113.654 52.1832C113.701 52.2488 113.731 52.3322 113.731 52.4396C113.743 52.7377 113.528 53.0955 113.087 53.5189C112.646 53.9423 112.044 54.3061 111.287 54.6102C110.53 54.9143 109.695 55.0634 108.777 55.0634C107.787 55.0634 106.995 54.8368 106.398 54.3776C105.802 53.9184 105.504 53.2863 105.504 52.4873C105.504 52.1176 105.564 51.7598 105.677 51.4199L107.072 47.019C107.144 46.7686 107.179 46.5658 107.179 46.4168C107.179 46.1186 107.108 45.8681 106.971 45.6594C106.834 45.4507 106.637 45.236 106.392 45.0154C106.172 44.8067 106.023 44.6338 105.933 44.4907C105.844 44.3475 105.826 44.1806 105.868 43.9897C105.927 43.7989 106.053 43.6498 106.237 43.5425C106.428 43.4411 106.726 43.3875 107.132 43.3875H108.354L109.731 41.9861C110.214 41.4971 110.649 41.1572 111.048 40.9664C111.448 40.7756 111.967 40.6802 112.61 40.6802C113.528 40.6802 113.988 41.038 113.988 41.7476C113.988 41.9682 113.958 42.1769 113.898 42.3678L113.594 43.3875H114.751C115.025 43.3875 115.239 43.4471 115.394 43.5664L115.4 43.5783Z" fill="#4B66EA"/>
<path d="M125.799 43.8997C126.628 44.502 127.045 45.2653 127.045 46.2015C127.045 46.4818 127.015 46.7441 126.956 46.9767C126.735 47.9547 126.133 48.6524 125.131 49.0758C124.136 49.4991 122.961 49.7078 121.608 49.7078C120.922 49.7078 120.284 49.6661 119.688 49.5767C119.676 50.3459 119.879 50.8886 120.296 51.1986C120.72 51.5087 121.31 51.6638 122.061 51.6638C122.413 51.6638 122.747 51.622 123.063 51.5385C123.385 51.4551 123.79 51.3358 124.285 51.1748C124.69 51.0257 124.97 50.9542 125.113 50.9542C125.274 50.9542 125.352 51.0496 125.352 51.2404C125.364 51.7592 125.179 52.3018 124.786 52.8743C124.392 53.4468 123.808 53.9298 123.039 54.3293C122.27 54.7288 121.34 54.9316 120.243 54.9316C118.627 54.9316 117.304 54.5201 116.272 53.6853C115.241 52.8564 114.722 51.6518 114.722 50.0656C114.722 49.6184 114.782 49.1056 114.895 48.5092C115.259 46.6905 116.058 45.313 117.286 44.3887C118.514 43.4644 120.01 42.9993 121.769 42.9993C123.617 42.9993 124.952 43.2974 125.781 43.8997H125.799ZM120.082 48.2648C120.69 48.2648 121.161 47.9785 121.477 47.4001C121.799 46.8217 121.948 46.1776 121.936 45.468C121.924 45.0506 121.805 44.8479 121.584 44.8479C121.423 44.8479 121.232 44.979 121.018 45.2355C120.803 45.4919 120.583 45.8854 120.374 46.4042C120.165 46.923 119.986 47.5373 119.837 48.2469C119.897 48.2648 119.974 48.2707 120.076 48.2707L120.082 48.2648Z" fill="#4B66EA"/>
<path d="M139.271 43.8642C139.76 44.3651 140.005 44.9913 140.005 45.7307C140.005 46.011 139.975 46.2733 139.915 46.5059C139.772 47.1142 139.492 47.5793 139.086 47.9073C138.681 48.2352 138.192 48.3962 137.626 48.3962C137.059 48.3962 136.654 48.2651 136.374 47.9967C136.088 47.7284 135.837 47.3765 135.623 46.9293C135.504 46.6788 135.396 46.494 135.295 46.3747C135.193 46.2555 135.074 46.1958 134.943 46.1958C134.8 46.1958 134.669 46.2555 134.562 46.3747C134.454 46.494 134.353 46.7027 134.269 46.9949L132.588 52.5466C132.558 52.6182 132.547 52.7315 132.547 52.8806C132.547 53.0714 132.6 53.2324 132.707 53.3576C132.815 53.4828 132.964 53.6081 133.155 53.7214C133.327 53.8406 133.447 53.936 133.506 54.0076C133.566 54.0792 133.584 54.1805 133.572 54.2938C133.542 54.4847 133.435 54.6278 133.256 54.7172C133.077 54.8067 132.767 54.8484 132.326 54.8484H126.74C126.364 54.8484 126.09 54.7828 125.923 54.6576C125.756 54.5324 125.697 54.3654 125.738 54.1567C125.798 53.9778 125.947 53.8227 126.197 53.6916C126.418 53.5723 126.597 53.4351 126.746 53.2682C126.889 53.1072 127.014 52.8448 127.115 52.493L129.059 46.0706C129.089 45.999 129.101 45.8917 129.101 45.7605C129.101 45.5995 129.071 45.4743 129.005 45.3848C128.94 45.2954 128.832 45.1821 128.689 45.0509C128.546 44.9316 128.439 44.8303 128.385 44.7408C128.326 44.6514 128.32 44.5321 128.361 44.383C128.451 44.0431 128.91 43.745 129.739 43.4826C130.567 43.2262 131.432 43.095 132.338 43.095C132.934 43.095 133.429 43.2321 133.822 43.5064C134.216 43.7807 134.472 44.1683 134.585 44.6752C135.283 43.6257 136.201 43.1009 137.334 43.1009C138.15 43.1009 138.8 43.3514 139.289 43.8583L139.271 43.8642Z" fill="#4B66EA"/>
<path d="M159.987 51.7953C159.958 51.855 159.946 51.9444 159.946 52.0637C159.946 52.165 159.97 52.2485 160.023 52.3082C160.077 52.3678 160.142 52.3976 160.232 52.3976C160.405 52.3976 160.554 52.3201 160.679 52.165C160.804 52.01 160.888 51.9325 160.929 51.9325C161.001 51.9325 161.061 51.9802 161.102 52.0756C161.144 52.171 161.168 52.2843 161.168 52.4215C161.18 52.8508 161.043 53.2682 160.751 53.6737C160.458 54.0792 160.035 54.4132 159.475 54.6755C158.914 54.932 158.241 55.0632 157.46 55.0632C156.5 55.0632 155.737 54.8366 155.17 54.3834C154.604 53.9301 154.312 53.3279 154.3 52.5705C154.3 52.0219 154.431 51.4077 154.693 50.7279L155.892 47.5317C155.963 47.3408 155.999 47.1858 155.999 47.0665C155.999 46.8757 155.939 46.7207 155.814 46.6133C155.689 46.5 155.54 46.4464 155.367 46.4464C155.117 46.4464 154.866 46.5597 154.604 46.7803C154.342 47.0009 154.109 47.3528 153.907 47.8238L152.708 51.8013C152.678 51.8609 152.667 51.9504 152.667 52.0696C152.667 52.171 152.69 52.2545 152.744 52.3141C152.792 52.3738 152.863 52.4036 152.953 52.4036C153.126 52.4036 153.275 52.3261 153.4 52.171C153.525 52.016 153.608 51.9384 153.65 51.9384C153.722 51.9384 153.781 51.9861 153.823 52.0816C153.865 52.177 153.889 52.2903 153.889 52.4274C153.901 52.8568 153.763 53.2742 153.471 53.6797C153.179 54.0852 152.756 54.4191 152.196 54.6815C151.635 54.9379 150.961 55.0691 150.175 55.0691C149.215 55.0691 148.452 54.8425 147.885 54.3893C147.319 53.9361 147.027 53.3338 147.015 52.5765C147.015 52.0279 147.146 51.4137 147.408 50.7339L148.607 47.5376C148.678 47.3468 148.714 47.1918 148.714 47.0725C148.714 46.8817 148.654 46.7266 148.529 46.6193C148.404 46.506 148.255 46.4523 148.082 46.4523C147.832 46.4523 147.581 46.5597 147.319 46.7743C147.057 46.989 146.842 47.3349 146.663 47.806L145.22 52.5586C145.161 52.7196 145.131 52.8747 145.131 53.0237C145.131 53.2026 145.167 53.3458 145.238 53.4591C145.31 53.5724 145.411 53.6857 145.542 53.8049C145.644 53.8944 145.715 53.9779 145.763 54.0494C145.805 54.121 145.811 54.2104 145.787 54.3178C145.727 54.5086 145.59 54.6517 145.369 54.7411C145.149 54.8306 144.809 54.8723 144.344 54.8723H139.372C138.996 54.8723 138.722 54.8067 138.555 54.6815C138.388 54.5563 138.329 54.3893 138.37 54.1806C138.43 54.0017 138.579 53.8467 138.829 53.7155C139.05 53.5962 139.229 53.4591 139.378 53.2921C139.521 53.1311 139.646 52.8687 139.748 52.5169L141.691 46.0945C141.721 46.023 141.733 45.9156 141.733 45.7844C141.733 45.6234 141.703 45.4982 141.637 45.4088C141.572 45.3193 141.465 45.206 141.321 45.0748C141.178 44.9556 141.071 44.8542 141.017 44.7647C140.958 44.6753 140.952 44.556 140.994 44.4069C141.083 44.067 141.542 43.7689 142.371 43.5065C143.199 43.2501 144.064 43.1189 144.964 43.1189C145.679 43.1189 146.24 43.3216 146.657 43.7212C147.074 44.1207 147.271 44.6693 147.259 45.367C147.855 44.5202 148.481 43.9359 149.149 43.6138C149.811 43.2859 150.526 43.1249 151.295 43.1249C152.142 43.1249 152.827 43.3753 153.358 43.8703C153.889 44.3652 154.181 45.0152 154.24 45.8143C154.866 44.8065 155.534 44.1088 156.249 43.7152C156.965 43.3216 157.74 43.1249 158.586 43.1249C159.475 43.1249 160.19 43.3992 160.739 43.9478C161.287 44.4964 161.555 45.206 161.555 46.0826C161.555 46.5418 161.484 46.995 161.335 47.4362L160.005 51.8132L159.987 51.7953Z" fill="#4B66EA"/>
<path d="M169.7 43.5966C170.093 43.9246 170.29 44.3659 170.29 44.9324C170.29 45.2723 170.242 45.6003 170.135 45.9103L168.126 52.5533C168.084 52.7322 168.06 52.8873 168.06 53.0185C168.06 53.2093 168.096 53.3643 168.168 53.4717C168.239 53.579 168.34 53.6923 168.472 53.7937C168.573 53.8951 168.645 53.9845 168.692 54.0501C168.734 54.1157 168.74 54.1992 168.716 54.3065C168.645 54.4973 168.495 54.6405 168.281 54.7299C168.06 54.8193 167.726 54.8611 167.279 54.8611H162.307C161.932 54.8611 161.651 54.7955 161.479 54.6703C161.306 54.545 161.246 54.3781 161.306 54.1694C161.365 53.9905 161.514 53.8354 161.765 53.7042C161.985 53.585 162.164 53.4478 162.313 53.2808C162.456 53.1198 162.582 52.8575 162.683 52.5056L164.579 46.0833C164.62 45.9521 164.644 45.8388 164.644 45.7493C164.644 45.5883 164.608 45.4571 164.537 45.3617C164.465 45.2663 164.352 45.165 164.209 45.0636C164.066 44.9443 163.959 44.8429 163.905 44.7535C163.851 44.664 163.839 44.5448 163.881 44.3957C163.971 44.0558 164.43 43.7576 165.258 43.4953C166.087 43.2388 166.951 43.1077 167.858 43.1077C168.704 43.1077 169.318 43.2687 169.712 43.5966H169.7ZM170.725 38.7665C171.101 39.1421 171.291 39.6073 171.291 40.1559C171.291 40.5435 171.196 40.9192 170.999 41.2889C170.803 41.6586 170.528 41.9568 170.171 42.1893C169.813 42.4219 169.42 42.5352 168.984 42.5352C168.43 42.5352 167.971 42.3444 167.601 41.9687C167.232 41.593 167.035 41.1219 167.023 40.5554C167.023 40.1857 167.118 39.8219 167.309 39.4582C167.5 39.0944 167.768 38.7963 168.114 38.5577C168.46 38.3192 168.865 38.2 169.312 38.2C169.879 38.2 170.35 38.3908 170.731 38.7665H170.725Z" fill="#4B66EA"/>
<path d="M183.596 51.7953C183.567 51.8549 183.555 51.9444 183.555 52.0636C183.555 52.165 183.578 52.2485 183.632 52.3081C183.686 52.3678 183.751 52.3976 183.841 52.3976C184.014 52.3976 184.163 52.3201 184.288 52.165C184.413 52.01 184.497 51.9324 184.538 51.9324C184.61 51.9324 184.669 51.9802 184.711 52.0756C184.753 52.171 184.777 52.2843 184.777 52.4214C184.789 52.8508 184.652 53.2682 184.359 53.6737C184.067 54.0792 183.644 54.4131 183.084 54.6755C182.523 54.9319 181.85 55.0631 181.063 55.0631C180.103 55.0631 179.34 54.8365 178.773 54.3833C178.207 53.9301 177.915 53.3278 177.903 52.5705C177.903 52.0219 178.034 51.4077 178.296 50.7279L179.495 47.5316C179.566 47.3408 179.602 47.1858 179.602 47.0665C179.602 46.8757 179.542 46.7206 179.417 46.6133C179.292 46.5 179.143 46.4463 178.97 46.4463C178.648 46.4463 178.344 46.5954 178.052 46.8995C177.76 47.2036 177.551 47.5793 177.42 48.0206L176.067 52.5526C176.007 52.7136 175.977 52.8687 175.977 53.0177C175.977 53.1966 176.013 53.3398 176.085 53.4531C176.156 53.5664 176.258 53.6797 176.389 53.7989C176.49 53.8884 176.562 53.9719 176.609 54.0434C176.651 54.115 176.657 54.2044 176.633 54.3118C176.574 54.5026 176.436 54.6457 176.216 54.7351C175.995 54.8246 175.655 54.8663 175.19 54.8663H170.218C169.843 54.8663 169.569 54.8007 169.402 54.6755C169.235 54.5503 169.175 54.3833 169.217 54.1746C169.276 53.9957 169.425 53.8407 169.676 53.7095C169.896 53.5902 170.075 53.4531 170.224 53.2861C170.367 53.1251 170.493 52.8627 170.594 52.5109L172.537 46.0885C172.567 46.017 172.579 45.9096 172.579 45.7784C172.579 45.6174 172.543 45.4922 172.478 45.4028C172.412 45.3133 172.305 45.2 172.162 45.0688C172.019 44.9496 171.911 44.8482 171.858 44.7587C171.798 44.6693 171.792 44.55 171.834 44.4009C171.923 44.061 172.382 43.7629 173.211 43.5005C174.04 43.2441 174.904 43.1129 175.81 43.1129C176.538 43.1129 177.11 43.3156 177.533 43.7211C177.957 44.1266 178.147 44.6931 178.1 45.4206C178.696 44.55 179.328 43.9418 179.996 43.6078C180.663 43.2739 181.391 43.1069 182.177 43.1069C183.066 43.1069 183.781 43.3812 184.33 43.9299C184.878 44.4785 185.146 45.1881 185.146 46.0647C185.146 46.5238 185.075 46.977 184.926 47.4183L183.596 51.7953Z" fill="#4B66EA"/>
<path d="M197.869 51.9022C197.869 52.0035 197.899 52.087 197.958 52.1467C198.018 52.2063 198.089 52.2361 198.179 52.2361C198.352 52.2361 198.501 52.1586 198.626 52.0035C198.751 51.8485 198.835 51.771 198.876 51.771C198.948 51.771 199.008 51.8246 199.049 51.926C199.091 52.0274 199.115 52.1467 199.115 52.2838C199.127 52.6833 198.978 53.0888 198.668 53.5063C198.352 53.9237 197.934 54.2636 197.416 54.526C196.891 54.7943 196.325 54.9255 195.711 54.9255C194.983 54.9255 194.351 54.7824 193.815 54.5021C193.278 54.2218 192.903 53.8521 192.7 53.393C192.307 53.9118 191.854 54.2994 191.347 54.5498C190.84 54.8003 190.298 54.9255 189.731 54.9255C189.063 54.9255 188.437 54.7526 187.865 54.4127C187.293 54.0728 186.834 53.5897 186.488 52.9576C186.148 52.3255 185.975 51.6159 185.975 50.8169C185.975 49.4692 186.226 48.199 186.727 47.0064C187.227 45.8138 187.931 44.8537 188.831 44.1202C189.731 43.3867 190.757 43.023 191.907 43.023C192.533 43.023 193.07 43.0945 193.511 43.2436C193.952 43.3927 194.357 43.6133 194.721 43.9115L195.46 41.4248C195.502 41.2937 195.526 41.1804 195.526 41.0909C195.526 40.9299 195.484 40.7927 195.407 40.6914C195.329 40.59 195.222 40.4827 195.091 40.3813C194.948 40.262 194.84 40.1606 194.775 40.0712C194.709 39.9818 194.697 39.8625 194.745 39.7134C194.834 39.3735 195.293 39.0754 196.122 38.8249C196.951 38.5744 197.815 38.4492 198.721 38.4492C199.568 38.4492 200.188 38.6102 200.587 38.9382C200.987 39.2662 201.189 39.7074 201.189 40.268C201.189 40.596 201.142 40.912 201.035 41.2221L197.917 51.6636C197.887 51.7829 197.875 51.8604 197.875 51.9081L197.869 51.9022ZM193.505 45.1041C193.082 45.1041 192.67 45.4202 192.259 46.0582C191.854 46.6963 191.526 47.4656 191.275 48.366C191.025 49.2724 190.912 50.0834 190.924 50.8109C190.924 51.6279 191.186 52.0334 191.71 52.0334C191.901 52.0334 192.056 51.9558 192.187 51.8008C192.319 51.6457 192.444 51.3893 192.557 51.0315L194.262 45.4142C194.03 45.2055 193.773 45.1041 193.499 45.1041H193.505Z" fill="#4B66EA"/>
</svg>
