<svg width="24" height="24" viewBox="0 0 24 24" fill="none" xmlns="http://www.w3.org/2000/svg">
<path d="M11.9936 13.5146C13.2901 13.4744 14.5177 12.9217 15.4074 11.9778C16.2971 11.034 16.7763 9.77585 16.7399 8.47926V8.38064C16.7743 7.72612 16.6795 7.07124 16.4608 6.45337C16.2422 5.8355 15.9039 5.26676 15.4655 4.7796C15.027 4.29245 14.4969 3.89644 13.9053 3.61418C13.3138 3.33191 12.6725 3.16892 12.018 3.13452H11.999C10.6773 3.19889 9.43521 3.78557 8.54593 4.76556C7.65665 5.74554 7.19298 7.03859 7.25688 8.36037V8.38334C7.19326 9.67911 7.64608 10.9472 8.51605 11.9096C9.38601 12.8721 10.6021 13.4502 11.8977 13.5173H11.9963M11.9963 4.4653C12.9546 4.51047 13.8557 4.93435 14.5015 5.64374C15.1473 6.35313 15.4849 7.28996 15.4402 8.24823C15.4414 8.28754 15.4391 8.32687 15.4334 8.36577C15.4941 9.31514 15.1752 10.2497 14.5469 10.964C13.9185 11.6782 13.0322 12.1136 12.0828 12.1744H11.9869C11.5234 12.1647 11.0663 12.0639 10.6418 11.8775C10.2172 11.6912 9.83354 11.4231 9.51262 11.0885C9.1917 10.7539 8.93983 10.3594 8.77139 9.92748C8.60295 9.49554 8.52123 9.03465 8.53092 8.57113C8.52869 8.50205 8.53231 8.4329 8.54172 8.36442C8.50172 7.89122 8.55533 7.41478 8.69949 6.9623C8.84366 6.50982 9.07555 6.09018 9.38193 5.72734C9.68831 5.3645 10.0632 5.06558 10.4851 4.84765C10.907 4.62971 11.3678 4.49703 11.841 4.4572L11.9828 4.44909" fill="white"/>
<path d="M12.0014 7.6082e-08C9.62786 -0.000267134 7.3076 0.703327 5.334 2.0218C3.36041 3.34028 1.82213 5.21441 0.913709 7.40717C0.00529049 9.59994 -0.232463 12.0129 0.230516 14.3407C0.693496 16.6686 1.83641 18.807 3.51472 20.4853C5.19303 22.1636 7.33135 23.3065 9.65925 23.7695C11.9871 24.2325 14.4001 23.9947 16.5928 23.0863C18.7856 22.1779 20.6597 20.6396 21.9782 18.666C23.2967 16.6924 24.0003 14.3721 24 11.9986C23.9996 8.81652 22.7354 5.76482 20.4853 3.51472C18.2352 1.26461 15.1835 0.000358323 12.0014 7.6082e-08ZM11.9554 22.5003C10.6052 22.5002 9.26864 22.2308 8.02383 21.7079C6.77901 21.185 5.65097 20.4192 4.7057 19.4551C5.15603 18.5595 5.8304 17.7958 6.66327 17.238C7.49613 16.6802 8.45915 16.3475 9.45868 16.272H14.5535C15.5624 16.3477 16.5331 16.6906 17.3657 17.2654C18.1984 17.8403 18.8631 18.6263 19.2916 19.5429C17.3316 21.4546 14.6973 22.5171 11.9595 22.5003M20.1103 18.4823C19.5737 17.4893 18.7873 16.6534 17.829 16.057C16.8706 15.4607 15.7733 15.1245 14.6454 15.0817H9.26413C8.14698 15.1257 7.05931 15.4528 6.10317 16.0322C5.14703 16.6117 4.35377 17.4245 3.7978 18.3945C2.39134 16.5905 1.63023 14.3672 1.63612 12.0797C1.62931 9.33842 2.71138 6.70662 4.64444 4.76291C6.5775 2.81921 9.20332 1.72271 11.9446 1.71448H12.0068C14.748 1.70802 17.3797 2.79043 19.3232 4.72375C21.2666 6.65707 22.3628 9.28303 22.3706 12.0243V12.0784C22.3691 14.4089 21.57 16.6688 20.1063 18.4823" fill="white"/>
</svg>
