<svg width="28" height="28" viewBox="0 0 28 28" fill="none" xmlns="http://www.w3.org/2000/svg">
<path fill-rule="evenodd" clip-rule="evenodd" d="M14.0013 0.666679C10.3802 0.666679 9.92573 0.682513 8.5035 0.747236C7.08404 0.812236 6.11514 1.03696 5.26735 1.36669C4.3904 1.70725 3.6465 2.16281 2.90538 2.9042C2.16371 3.64532 1.70815 4.38922 1.36648 5.26589C1.03592 6.11396 0.810916 7.08314 0.747027 8.50204C0.683415 9.92428 0.666748 10.379 0.666748 14.0002C0.666748 17.6213 0.682859 18.0744 0.747304 19.4966C0.812583 20.9161 1.03731 21.885 1.36676 22.7327C1.70759 23.6097 2.16315 24.3536 2.90455 25.0947C3.64539 25.8364 4.38929 26.2931 5.26569 26.6336C6.11403 26.9633 7.0832 27.1881 8.50239 27.2531C9.92462 27.3178 10.3788 27.3336 13.9997 27.3336C17.6211 27.3336 18.0742 27.3178 19.4964 27.2531C20.9158 27.1881 21.8859 26.9633 22.7342 26.6336C23.6109 26.2931 24.3537 25.8364 25.0945 25.0947C25.8362 24.3536 26.2917 23.6097 26.6334 22.733C26.9612 21.885 27.1862 20.9158 27.2529 19.4969C27.3167 18.0746 27.3334 17.6213 27.3334 14.0002C27.3334 10.379 27.3167 9.92455 27.2529 8.50232C27.1862 7.08286 26.9612 6.11396 26.6334 5.26617C26.2917 4.38922 25.8362 3.64532 25.0945 2.9042C24.3528 2.16253 23.6112 1.70697 22.7334 1.36669C21.8834 1.03696 20.9139 0.812236 19.4944 0.747236C18.0722 0.682513 17.6194 0.666679 13.9972 0.666679H14.0013ZM12.8052 3.06944C13.1602 3.06889 13.5563 3.06944 14.0013 3.06944C17.5613 3.06944 17.9833 3.08222 19.3891 3.14611C20.6891 3.20556 21.3947 3.42278 21.8647 3.60528C22.4869 3.84695 22.9305 4.13585 23.3969 4.60252C23.8636 5.06919 24.1525 5.51364 24.3947 6.13587C24.5772 6.60532 24.7947 7.31088 24.8539 8.61089C24.9178 10.0165 24.9317 10.4387 24.9317 13.9971C24.9317 17.5554 24.9178 17.9777 24.8539 19.3832C24.7944 20.6832 24.5772 21.3888 24.3947 21.8583C24.153 22.4805 23.8636 22.9235 23.3969 23.3899C22.9303 23.8566 22.4872 24.1455 21.8647 24.3872C21.3952 24.5705 20.6891 24.7872 19.3891 24.8466C17.9835 24.9105 17.5613 24.9244 14.0013 24.9244C10.441 24.9244 10.019 24.9105 8.61344 24.8466C7.31343 24.7866 6.60786 24.5694 6.13758 24.3869C5.51535 24.1452 5.0709 23.8563 4.60423 23.3897C4.13756 22.923 3.84867 22.4796 3.60644 21.8571C3.42394 21.3877 3.20644 20.6821 3.14727 19.3821C3.08338 17.9765 3.07061 17.5543 3.07061 13.9937C3.07061 10.4331 3.08338 10.0131 3.14727 8.60756C3.20672 7.30755 3.42394 6.60198 3.60644 6.13198C3.84811 5.50975 4.13756 5.0653 4.60423 4.59863C5.0709 4.13196 5.51535 3.84306 6.13758 3.60084C6.60759 3.4175 7.31343 3.20083 8.61344 3.14111C9.84345 3.08556 10.3201 3.06889 12.8052 3.06611V3.06944ZM21.1186 5.28336C20.2352 5.28336 19.5186 5.9992 19.5186 6.88282C19.5186 7.76617 20.2352 8.48284 21.1186 8.48284C22.0019 8.48284 22.7186 7.76617 22.7186 6.88282C22.7186 5.99948 22.0019 5.28336 21.1186 5.28336ZM14.0014 7.15282C10.2199 7.15282 7.15406 10.2187 7.15406 14.0001C7.15406 17.7815 10.2199 20.846 14.0014 20.846C17.7828 20.846 20.8475 17.7815 20.8475 14.0001C20.8475 10.2187 17.7828 7.15282 14.0014 7.15282ZM14.0013 9.55562C16.4558 9.55562 18.4458 11.5454 18.4458 14.0001C18.4458 16.4546 16.4558 18.4446 14.0013 18.4446C11.5466 18.4446 9.55681 16.4546 9.55681 14.0001C9.55681 11.5454 11.5466 9.55562 14.0013 9.55562Z" fill="white"/>
</svg>
